<?xml version="1.0" encoding="UTF-8" standalone="no"?>
<!DOCTYPE svg PUBLIC "-//W3C//DTD SVG 1.1//EN"
 "http://www.w3.org/Graphics/SVG/1.1/DTD/svg11.dtd">
<!-- Generated by graphviz version 2.38.0 (20140413.2041)
 -->
<!-- Title: %3 Pages: 1 -->
<svg width="2598pt" height="1799pt"
 viewBox="0.00 0.00 2598.00 1799.00" xmlns="http://www.w3.org/2000/svg" xmlns:xlink="http://www.w3.org/1999/xlink">
<g id="graph0" class="graph" transform="scale(1 1) rotate(0) translate(4 1795)">
<title>%3</title>
<polygon fill="white" stroke="none" points="-4,4 -4,-1795 2594,-1795 2594,4 -4,4"/>
<!-- [root] aws_instance.secondserver -->
<g id="node1" class="node"><title>[root] aws_instance.secondserver</title>
<polygon fill="none" stroke="black" points="673.683,-524.548 504.683,-524.548 504.683,-488.548 673.683,-488.548 673.683,-524.548"/>
<text text-anchor="middle" x="589.183" y="-502.848" font-family="Times New Roman,serif" font-size="14.00">aws_instance.secondserver</text>
</g>
<!-- [root] aws_subnet.subnet1 -->
<g id="node3" class="node"><title>[root] aws_subnet.subnet1</title>
<polygon fill="none" stroke="black" points="412.886,-671.749 282.886,-671.749 282.886,-635.749 412.886,-635.749 412.886,-671.749"/>
<text text-anchor="middle" x="347.886" y="-650.049" font-family="Times New Roman,serif" font-size="14.00">aws_subnet.subnet1</text>
</g>
<!-- [root] aws_instance.secondserver&#45;&gt;[root] aws_subnet.subnet1 -->
<g id="edge1" class="edge"><title>[root] aws_instance.secondserver&#45;&gt;[root] aws_subnet.subnet1</title>
<path fill="none" stroke="black" d="M559.595,-524.598C515.997,-551.195 434.471,-600.929 386.304,-630.312"/>
<polygon fill="black" stroke="black" points="384.43,-627.356 377.716,-635.552 388.075,-633.332 384.43,-627.356"/>
</g>
<!-- [root] data.aws_ami.ubuntu -->
<g id="node8" class="node"><title>[root] data.aws_ami.ubuntu</title>
<polygon fill="none" stroke="black" points="363.193,-453.547 229.193,-453.547 229.193,-417.547 363.193,-417.547 363.193,-453.547"/>
<text text-anchor="middle" x="296.193" y="-431.847" font-family="Times New Roman,serif" font-size="14.00">data.aws_ami.ubuntu</text>
</g>
<!-- [root] aws_instance.secondserver&#45;&gt;[root] data.aws_ami.ubuntu -->
<g id="edge2" class="edge"><title>[root] aws_instance.secondserver&#45;&gt;[root] data.aws_ami.ubuntu</title>
<path fill="none" stroke="black" d="M514.871,-488.54C471.527,-478.037 416.944,-464.809 373.154,-454.198"/>
<polygon fill="black" stroke="black" points="373.956,-450.791 363.413,-451.837 372.308,-457.594 373.956,-450.791"/>
</g>
<!-- [root] aws_security_group.subnetsecurity -->
<g id="node2" class="node"><title>[root] aws_security_group.subnetsecurity</title>
<polygon fill="none" stroke="black" points="758.633,-680.918 544.633,-680.918 544.633,-644.918 758.633,-644.918 758.633,-680.918"/>
<text text-anchor="middle" x="651.633" y="-659.218" font-family="Times New Roman,serif" font-size="14.00">aws_security_group.subnetsecurity</text>
</g>
<!-- [root] aws_vpc.environment&#45;example&#45;two -->
<g id="node5" class="node"><title>[root] aws_vpc.environment&#45;example&#45;two</title>
<polygon fill="none" stroke="black" points="476.006,-724.192 261.006,-724.192 261.006,-688.192 476.006,-688.192 476.006,-724.192"/>
<text text-anchor="middle" x="368.506" y="-702.492" font-family="Times New Roman,serif" font-size="14.00">aws_vpc.environment&#45;example&#45;two</text>
</g>
<!-- [root] aws_security_group.subnetsecurity&#45;&gt;[root] aws_vpc.environment&#45;example&#45;two -->
<g id="edge3" class="edge"><title>[root] aws_security_group.subnetsecurity&#45;&gt;[root] aws_vpc.environment&#45;example&#45;two</title>
<path fill="none" stroke="black" d="M544.595,-679.278C525.526,-682.193 505.567,-685.244 486.219,-688.201"/>
<polygon fill="black" stroke="black" points="485.522,-684.766 476.166,-689.737 486.58,-691.686 485.522,-684.766"/>
</g>
<!-- [root] aws_subnet.subnet1&#45;&gt;[root] aws_vpc.environment&#45;example&#45;two -->
<g id="edge4" class="edge"><title>[root] aws_subnet.subnet1&#45;&gt;[root] aws_vpc.environment&#45;example&#45;two</title>
<path fill="none" stroke="black" d="M354.982,-671.797C355.847,-673.997 356.746,-676.282 357.65,-678.582"/>
<polygon fill="black" stroke="black" points="354.41,-679.908 361.327,-687.933 360.925,-677.346 354.41,-679.908"/>
</g>
<!-- [root] aws_subnet.subnet2 -->
<g id="node4" class="node"><title>[root] aws_subnet.subnet2</title>
<polygon fill="none" stroke="black" points="762.16,-771.007 632.16,-771.007 632.16,-735.007 762.16,-735.007 762.16,-771.007"/>
<text text-anchor="middle" x="697.16" y="-749.307" font-family="Times New Roman,serif" font-size="14.00">aws_subnet.subnet2</text>
</g>
<!-- [root] aws_subnet.subnet2&#45;&gt;[root] aws_vpc.environment&#45;example&#45;two -->
<g id="edge5" class="edge"><title>[root] aws_subnet.subnet2&#45;&gt;[root] aws_vpc.environment&#45;example&#45;two</title>
<path fill="none" stroke="black" d="M631.836,-743.702C590.242,-737.777 535.156,-729.931 486.122,-722.946"/>
<polygon fill="black" stroke="black" points="486.474,-719.461 476.08,-721.516 485.487,-726.391 486.474,-719.461"/>
</g>
<!-- [root] provider.aws -->
<g id="node13" class="node"><title>[root] provider.aws</title>
<polygon fill="none" stroke="black" points="81.6626,-588.416 0.0521697,-570.416 81.6626,-552.416 163.273,-570.416 81.6626,-588.416"/>
<text text-anchor="middle" x="81.6626" y="-566.716" font-family="Times New Roman,serif" font-size="14.00">provider.aws</text>
</g>
<!-- [root] aws_vpc.environment&#45;example&#45;two&#45;&gt;[root] provider.aws -->
<g id="edge6" class="edge"><title>[root] aws_vpc.environment&#45;example&#45;two&#45;&gt;[root] provider.aws</title>
<path fill="none" stroke="black" d="M330.415,-688.162C274.635,-661.759 171.479,-612.93 117.191,-587.233"/>
<polygon fill="black" stroke="black" points="118.498,-583.98 107.962,-582.865 115.503,-590.307 118.498,-583.98"/>
</g>
<!-- [root] azurerm_resource_group.azy_network -->
<g id="node6" class="node"><title>[root] azurerm_resource_group.azy_network</title>
<polygon fill="none" stroke="black" points="2055.64,-1252.61 1823.64,-1252.61 1823.64,-1216.61 2055.64,-1216.61 2055.64,-1252.61"/>
<text text-anchor="middle" x="1939.64" y="-1230.91" font-family="Times New Roman,serif" font-size="14.00">azurerm_resource_group.azy_network</text>
</g>
<!-- [root] provider.azurerm -->
<g id="node14" class="node"><title>[root] provider.azurerm</title>
<polygon fill="none" stroke="black" points="2284.43,-1503.63 2181.54,-1485.63 2284.43,-1467.63 2387.32,-1485.63 2284.43,-1503.63"/>
<text text-anchor="middle" x="2284.43" y="-1481.93" font-family="Times New Roman,serif" font-size="14.00">provider.azurerm</text>
</g>
<!-- [root] azurerm_resource_group.azy_network&#45;&gt;[root] provider.azurerm -->
<g id="edge7" class="edge"><title>[root] azurerm_resource_group.azy_network&#45;&gt;[root] provider.azurerm</title>
<path fill="none" stroke="black" d="M1964.43,-1252.66C2026.79,-1298.06 2189.88,-1416.79 2255.98,-1464.92"/>
<polygon fill="black" stroke="black" points="2254.14,-1467.9 2264.28,-1470.96 2258.26,-1462.24 2254.14,-1467.9"/>
</g>
<!-- [root] azurerm_virtual_network.blue_virtual_network -->
<g id="node7" class="node"><title>[root] azurerm_virtual_network.blue_virtual_network</title>
<polygon fill="none" stroke="black" points="1687.61,-964.67 1412.61,-964.67 1412.61,-928.67 1687.61,-928.67 1687.61,-964.67"/>
<text text-anchor="middle" x="1550.11" y="-942.97" font-family="Times New Roman,serif" font-size="14.00">azurerm_virtual_network.blue_virtual_network</text>
</g>
<!-- [root] azurerm_virtual_network.blue_virtual_network&#45;&gt;[root] azurerm_resource_group.azy_network -->
<g id="edge8" class="edge"><title>[root] azurerm_virtual_network.blue_virtual_network&#45;&gt;[root] azurerm_resource_group.azy_network</title>
<path fill="none" stroke="black" d="M1574.47,-964.682C1641.83,-1014.47 1830.6,-1154.01 1906.96,-1210.46"/>
<polygon fill="black" stroke="black" points="1905.16,-1213.48 1915.28,-1216.61 1909.32,-1207.85 1905.16,-1213.48"/>
</g>
<!-- [root] data.aws_ami.ubuntu&#45;&gt;[root] provider.aws -->
<g id="edge9" class="edge"><title>[root] data.aws_ami.ubuntu&#45;&gt;[root] provider.aws</title>
<path fill="none" stroke="black" d="M267.261,-453.736C226.558,-479.325 152.767,-525.715 111.553,-551.625"/>
<polygon fill="black" stroke="black" points="109.636,-548.696 103.032,-556.982 113.361,-554.622 109.636,-548.696"/>
</g>
<!-- [root] google_compute_instance.firstserver -->
<g id="node9" class="node"><title>[root] google_compute_instance.firstserver</title>
<polygon fill="none" stroke="black" points="1237.01,-551.674 1015.01,-551.674 1015.01,-515.674 1237.01,-515.674 1237.01,-551.674"/>
<text text-anchor="middle" x="1126.01" y="-529.974" font-family="Times New Roman,serif" font-size="14.00">google_compute_instance.firstserver</text>
</g>
<!-- [root] google_compute_subnetwork.dev&#45;subnet -->
<g id="node11" class="node"><title>[root] google_compute_subnetwork.dev&#45;subnet</title>
<polygon fill="none" stroke="black" points="1258.15,-380.516 1010.15,-380.516 1010.15,-344.516 1258.15,-344.516 1258.15,-380.516"/>
<text text-anchor="middle" x="1134.15" y="-358.816" font-family="Times New Roman,serif" font-size="14.00">google_compute_subnetwork.dev&#45;subnet</text>
</g>
<!-- [root] google_compute_instance.firstserver&#45;&gt;[root] google_compute_subnetwork.dev&#45;subnet -->
<g id="edge10" class="edge"><title>[root] google_compute_instance.firstserver&#45;&gt;[root] google_compute_subnetwork.dev&#45;subnet</title>
<path fill="none" stroke="black" d="M1126.88,-515.357C1128.3,-485.502 1131.13,-426.145 1132.81,-390.83"/>
<polygon fill="black" stroke="black" points="1136.31,-390.856 1133.29,-380.701 1129.32,-390.524 1136.31,-390.856"/>
</g>
<!-- [root] google_compute_network.my_development_network -->
<g id="node10" class="node"><title>[root] google_compute_network.my_development_network</title>
<polygon fill="none" stroke="black" points="1249.29,-319.198 934.29,-319.198 934.29,-283.198 1249.29,-283.198 1249.29,-319.198"/>
<text text-anchor="middle" x="1091.79" y="-297.498" font-family="Times New Roman,serif" font-size="14.00">google_compute_network.my_development_network</text>
</g>
<!-- [root] provider.google -->
<g id="node15" class="node"><title>[root] provider.google</title>
<polygon fill="none" stroke="black" points="1113.24,-35.8203 1016.72,-17.8203 1113.24,0.179665 1209.76,-17.8203 1113.24,-35.8203"/>
<text text-anchor="middle" x="1113.24" y="-14.1203" font-family="Times New Roman,serif" font-size="14.00">provider.google</text>
</g>
<!-- [root] google_compute_network.my_development_network&#45;&gt;[root] provider.google -->
<g id="edge11" class="edge"><title>[root] google_compute_network.my_development_network&#45;&gt;[root] provider.google</title>
<path fill="none" stroke="black" d="M1093.16,-283.04C1096.8,-234.955 1106.71,-104.043 1111.1,-46.0826"/>
<polygon fill="black" stroke="black" points="1114.61,-46.0624 1111.88,-35.8267 1107.63,-45.534 1114.61,-46.0624"/>
</g>
<!-- [root] google_compute_subnetwork.dev&#45;subnet&#45;&gt;[root] google_compute_network.my_development_network -->
<g id="edge12" class="edge"><title>[root] google_compute_subnetwork.dev&#45;subnet&#45;&gt;[root] google_compute_network.my_development_network</title>
<path fill="none" stroke="black" d="M1121.67,-344.45C1118.08,-339.257 1114.09,-333.481 1110.23,-327.884"/>
<polygon fill="black" stroke="black" points="1112.89,-325.584 1104.33,-319.346 1107.13,-329.563 1112.89,-325.584"/>
</g>
<!-- [root] google_container_cluster.googlekubernates -->
<g id="node12" class="node"><title>[root] google_container_cluster.googlekubernates</title>
<polygon fill="none" stroke="black" points="1246.98,-80.5129 988.981,-80.5129 988.981,-44.5129 1246.98,-44.5129 1246.98,-80.5129"/>
<text text-anchor="middle" x="1117.98" y="-58.8129" font-family="Times New Roman,serif" font-size="14.00">google_container_cluster.googlekubernates</text>
</g>
<!-- [root] google_container_cluster.googlekubernates&#45;&gt;[root] provider.google -->
<g id="edge13" class="edge"><title>[root] google_container_cluster.googlekubernates&#45;&gt;[root] provider.google</title>
<path fill="none" stroke="black" d="M1116.05,-44.3347C1116.04,-44.2441 1116.03,-44.1534 1116.02,-44.0625"/>
<polygon fill="black" stroke="black" points="1119.66,-45.1233 1115.12,-35.5482 1112.7,-45.8616 1119.66,-45.1233"/>
</g>
<!-- [root] var.client_id -->
<g id="node16" class="node"><title>[root] var.client_id</title>
<polygon fill="none" stroke="black" points="2584.25,-1582.12 2505.25,-1582.12 2505.25,-1546.12 2590.25,-1546.12 2590.25,-1576.12 2584.25,-1582.12"/>
<polyline fill="none" stroke="black" points="2584.25,-1582.12 2584.25,-1576.12 "/>
<polyline fill="none" stroke="black" points="2590.25,-1576.12 2584.25,-1576.12 "/>
<text text-anchor="middle" x="2547.75" y="-1560.42" font-family="Times New Roman,serif" font-size="14.00">var.client_id</text>
</g>
<!-- [root] provider.azurerm&#45;&gt;[root] var.client_id -->
<g id="edge24" class="edge"><title>[root] provider.azurerm&#45;&gt;[root] var.client_id</title>
<path fill="none" stroke="black" d="M2322.72,-1497.04C2368.19,-1510.59 2444.26,-1533.27 2495.21,-1548.46"/>
<polygon fill="black" stroke="black" points="2494.46,-1551.89 2505.04,-1551.39 2496.46,-1545.18 2494.46,-1551.89"/>
</g>
<!-- [root] var.client_secret -->
<g id="node17" class="node"><title>[root] var.client_secret</title>
<polygon fill="none" stroke="black" points="2502.46,-1734.27 2401.46,-1734.27 2401.46,-1698.27 2508.46,-1698.27 2508.46,-1728.27 2502.46,-1734.27"/>
<polyline fill="none" stroke="black" points="2502.46,-1734.27 2502.46,-1728.27 "/>
<polyline fill="none" stroke="black" points="2508.46,-1728.27 2502.46,-1728.27 "/>
<text text-anchor="middle" x="2454.96" y="-1712.57" font-family="Times New Roman,serif" font-size="14.00">var.client_secret</text>
</g>
<!-- [root] provider.azurerm&#45;&gt;[root] var.client_secret -->
<g id="edge25" class="edge"><title>[root] provider.azurerm&#45;&gt;[root] var.client_secret</title>
<path fill="none" stroke="black" d="M2296.42,-1501.84C2325.53,-1541.21 2400.13,-1642.12 2435.63,-1690.13"/>
<polygon fill="black" stroke="black" points="2432.83,-1692.22 2441.58,-1698.18 2438.45,-1688.06 2432.83,-1692.22"/>
</g>
<!-- [root] var.subscription_id -->
<g id="node18" class="node"><title>[root] var.subscription_id</title>
<polygon fill="none" stroke="black" points="2322.4,-1790.96 2203.4,-1790.96 2203.4,-1754.96 2328.4,-1754.96 2328.4,-1784.96 2322.4,-1790.96"/>
<polyline fill="none" stroke="black" points="2322.4,-1790.96 2322.4,-1784.96 "/>
<polyline fill="none" stroke="black" points="2328.4,-1784.96 2322.4,-1784.96 "/>
<text text-anchor="middle" x="2265.9" y="-1769.26" font-family="Times New Roman,serif" font-size="14.00">var.subscription_id</text>
</g>
<!-- [root] provider.azurerm&#45;&gt;[root] var.subscription_id -->
<g id="edge26" class="edge"><title>[root] provider.azurerm&#45;&gt;[root] var.subscription_id</title>
<path fill="none" stroke="black" d="M2283.27,-1503.6C2280.15,-1552.06 2271.53,-1685.72 2267.74,-1744.55"/>
<polygon fill="black" stroke="black" points="2264.24,-1744.42 2267.09,-1754.62 2271.22,-1744.87 2264.24,-1744.42"/>
</g>
<!-- [root] var.tenant_id -->
<g id="node19" class="node"><title>[root] var.tenant_id</title>
<polygon fill="none" stroke="black" points="2570.87,-1394.81 2487.87,-1394.81 2487.87,-1358.81 2576.87,-1358.81 2576.87,-1388.81 2570.87,-1394.81"/>
<polyline fill="none" stroke="black" points="2570.87,-1394.81 2570.87,-1388.81 "/>
<polyline fill="none" stroke="black" points="2576.87,-1388.81 2570.87,-1388.81 "/>
<text text-anchor="middle" x="2532.37" y="-1373.11" font-family="Times New Roman,serif" font-size="14.00">var.tenant_id</text>
</g>
<!-- [root] provider.azurerm&#45;&gt;[root] var.tenant_id -->
<g id="edge27" class="edge"><title>[root] provider.azurerm&#45;&gt;[root] var.tenant_id</title>
<path fill="none" stroke="black" d="M2313.85,-1472.72C2355.18,-1454.57 2431.04,-1421.28 2481.6,-1399.09"/>
<polygon fill="black" stroke="black" points="2483.29,-1402.17 2491.04,-1394.94 2480.48,-1395.76 2483.29,-1402.17"/>
</g>
<!-- [root] meta.count&#45;boundary (EachMode fixup) -->
<g id="node20" class="node"><title>[root] meta.count&#45;boundary (EachMode fixup)</title>
<ellipse fill="none" stroke="black" cx="1066.42" cy="-593.917" rx="180.868" ry="18"/>
<text text-anchor="middle" x="1066.42" y="-590.217" font-family="Times New Roman,serif" font-size="14.00">[root] meta.count&#45;boundary (EachMode fixup)</text>
</g>
<!-- [root] meta.count&#45;boundary (EachMode fixup)&#45;&gt;[root] aws_instance.secondserver -->
<g id="edge14" class="edge"><title>[root] meta.count&#45;boundary (EachMode fixup)&#45;&gt;[root] aws_instance.secondserver</title>
<path fill="none" stroke="black" d="M979.999,-578.095C896.414,-562.793 770.068,-539.663 683.814,-523.873"/>
<polygon fill="black" stroke="black" points="684.229,-520.39 673.762,-522.032 682.968,-527.276 684.229,-520.39"/>
</g>
<!-- [root] meta.count&#45;boundary (EachMode fixup)&#45;&gt;[root] aws_security_group.subnetsecurity -->
<g id="edge15" class="edge"><title>[root] meta.count&#45;boundary (EachMode fixup)&#45;&gt;[root] aws_security_group.subnetsecurity</title>
<path fill="none" stroke="black" d="M973.337,-609.402C912.914,-619.454 833.667,-632.636 768.946,-643.403"/>
<polygon fill="black" stroke="black" points="767.979,-640.016 758.689,-645.109 769.128,-646.921 767.979,-640.016"/>
</g>
<!-- [root] meta.count&#45;boundary (EachMode fixup)&#45;&gt;[root] aws_subnet.subnet2 -->
<g id="edge16" class="edge"><title>[root] meta.count&#45;boundary (EachMode fixup)&#45;&gt;[root] aws_subnet.subnet2</title>
<path fill="none" stroke="black" d="M1025.5,-611.55C957.835,-640.701 822.792,-698.881 748.719,-730.794"/>
<polygon fill="black" stroke="black" points="746.921,-727.758 739.122,-734.929 749.691,-734.187 746.921,-727.758"/>
</g>
<!-- [root] meta.count&#45;boundary (EachMode fixup)&#45;&gt;[root] azurerm_virtual_network.blue_virtual_network -->
<g id="edge17" class="edge"><title>[root] meta.count&#45;boundary (EachMode fixup)&#45;&gt;[root] azurerm_virtual_network.blue_virtual_network</title>
<path fill="none" stroke="black" d="M1091.07,-611.895C1171.36,-670.448 1425.41,-855.731 1516.88,-922.44"/>
<polygon fill="black" stroke="black" points="1515.07,-925.453 1525.22,-928.518 1519.2,-919.797 1515.07,-925.453"/>
</g>
<!-- [root] meta.count&#45;boundary (EachMode fixup)&#45;&gt;[root] google_compute_instance.firstserver -->
<g id="edge18" class="edge"><title>[root] meta.count&#45;boundary (EachMode fixup)&#45;&gt;[root] google_compute_instance.firstserver</title>
<path fill="none" stroke="black" d="M1084.3,-575.842C1089.49,-570.6 1095.25,-564.775 1100.79,-559.169"/>
<polygon fill="black" stroke="black" points="1103.6,-561.307 1108.15,-551.736 1098.63,-556.384 1103.6,-561.307"/>
</g>
<!-- [root] meta.count&#45;boundary (EachMode fixup)&#45;&gt;[root] google_container_cluster.googlekubernates -->
<g id="edge19" class="edge"><title>[root] meta.count&#45;boundary (EachMode fixup)&#45;&gt;[root] google_container_cluster.googlekubernates</title>
<path fill="none" stroke="black" d="M1068.2,-575.625C1075.84,-496.897 1105.94,-186.595 1115.23,-90.82"/>
<polygon fill="black" stroke="black" points="1118.73,-91.0193 1116.21,-80.7281 1111.76,-90.3433 1118.73,-91.0193"/>
</g>
<!-- [root] provider.aws (close) -->
<g id="node21" class="node"><title>[root] provider.aws (close)</title>
<ellipse fill="none" stroke="black" cx="880.417" cy="-539.724" rx="108.581" ry="18"/>
<text text-anchor="middle" x="880.417" y="-536.024" font-family="Times New Roman,serif" font-size="14.00">[root] provider.aws (close)</text>
</g>
<!-- [root] provider.aws (close)&#45;&gt;[root] aws_instance.secondserver -->
<g id="edge20" class="edge"><title>[root] provider.aws (close)&#45;&gt;[root] aws_instance.secondserver</title>
<path fill="none" stroke="black" d="M790.661,-529.5C756.891,-525.653 718.397,-521.268 684.167,-517.368"/>
<polygon fill="black" stroke="black" points="684.495,-513.883 674.163,-516.229 683.703,-520.838 684.495,-513.883"/>
</g>
<!-- [root] provider.aws (close)&#45;&gt;[root] aws_security_group.subnetsecurity -->
<g id="edge21" class="edge"><title>[root] provider.aws (close)&#45;&gt;[root] aws_security_group.subnetsecurity</title>
<path fill="none" stroke="black" d="M848.123,-557.113C807.791,-578.831 738.681,-616.045 694.099,-640.052"/>
<polygon fill="black" stroke="black" points="692.396,-636.993 685.251,-644.816 695.715,-643.156 692.396,-636.993"/>
</g>
<!-- [root] provider.aws (close)&#45;&gt;[root] aws_subnet.subnet2 -->
<g id="edge22" class="edge"><title>[root] provider.aws (close)&#45;&gt;[root] aws_subnet.subnet2</title>
<path fill="none" stroke="black" d="M864.792,-557.908C832.199,-595.843 756.873,-683.511 719.302,-727.238"/>
<polygon fill="black" stroke="black" points="716.607,-725.003 712.745,-734.869 721.917,-729.565 716.607,-725.003"/>
</g>
<!-- [root] provider.azurerm (close) -->
<g id="node22" class="node"><title>[root] provider.azurerm (close)</title>
<ellipse fill="none" stroke="black" cx="1580.61" cy="-607.185" rx="123.478" ry="18"/>
<text text-anchor="middle" x="1580.61" y="-603.485" font-family="Times New Roman,serif" font-size="14.00">[root] provider.azurerm (close)</text>
</g>
<!-- [root] provider.azurerm (close)&#45;&gt;[root] azurerm_virtual_network.blue_virtual_network -->
<g id="edge23" class="edge"><title>[root] provider.azurerm (close)&#45;&gt;[root] azurerm_virtual_network.blue_virtual_network</title>
<path fill="none" stroke="black" d="M1578.97,-625.438C1573.95,-681.275 1558.78,-850.106 1552.68,-917.97"/>
<polygon fill="black" stroke="black" points="1549.16,-918.055 1551.75,-928.328 1556.13,-918.681 1549.16,-918.055"/>
</g>
<!-- [root] provider.google (close) -->
<g id="node23" class="node"><title>[root] provider.google (close)</title>
<ellipse fill="none" stroke="black" cx="1389.84" cy="-280.675" rx="118.879" ry="18"/>
<text text-anchor="middle" x="1389.84" y="-276.975" font-family="Times New Roman,serif" font-size="14.00">[root] provider.google (close)</text>
</g>
<!-- [root] provider.google (close)&#45;&gt;[root] google_compute_instance.firstserver -->
<g id="edge28" class="edge"><title>[root] provider.google (close)&#45;&gt;[root] google_compute_instance.firstserver</title>
<path fill="none" stroke="black" d="M1371.29,-298.465C1325.23,-342.633 1205.54,-457.409 1152.26,-508.504"/>
<polygon fill="black" stroke="black" points="1149.69,-506.117 1144.9,-515.564 1154.54,-511.169 1149.69,-506.117"/>
</g>
<!-- [root] provider.google (close)&#45;&gt;[root] google_container_cluster.googlekubernates -->
<g id="edge29" class="edge"><title>[root] provider.google (close)&#45;&gt;[root] google_container_cluster.googlekubernates</title>
<path fill="none" stroke="black" d="M1367.59,-262.822C1319.1,-223.91 1203.82,-131.398 1148.56,-87.0483"/>
<polygon fill="black" stroke="black" points="1150.53,-84.1418 1140.54,-80.6127 1146.14,-89.6012 1150.53,-84.1418"/>
</g>
<!-- [root] root -->
<g id="node24" class="node"><title>[root] root</title>
<ellipse fill="none" stroke="black" cx="1295.77" cy="-529.373" rx="49.2915" ry="18"/>
<text text-anchor="middle" x="1295.77" y="-525.673" font-family="Times New Roman,serif" font-size="14.00">[root] root</text>
</g>
<!-- [root] root&#45;&gt;[root] meta.count&#45;boundary (EachMode fixup) -->
<g id="edge30" class="edge"><title>[root] root&#45;&gt;[root] meta.count&#45;boundary (EachMode fixup)</title>
<path fill="none" stroke="black" d="M1256.6,-540.395C1223.82,-549.623 1176.2,-563.022 1136.82,-574.106"/>
<polygon fill="black" stroke="black" points="1135.68,-570.791 1127,-576.869 1137.57,-577.529 1135.68,-570.791"/>
</g>
<!-- [root] root&#45;&gt;[root] provider.aws (close) -->
<g id="edge31" class="edge"><title>[root] root&#45;&gt;[root] provider.aws (close)</title>
<path fill="none" stroke="black" d="M1246.08,-530.611C1185.2,-532.128 1080.07,-534.748 998.113,-536.791"/>
<polygon fill="black" stroke="black" points="997.894,-533.295 987.984,-537.043 998.068,-540.293 997.894,-533.295"/>
</g>
<!-- [root] root&#45;&gt;[root] provider.azurerm (close) -->
<g id="edge32" class="edge"><title>[root] root&#45;&gt;[root] provider.azurerm (close)</title>
<path fill="none" stroke="black" d="M1335.37,-540.192C1381.16,-552.7 1457.3,-573.5 1512.61,-588.61"/>
<polygon fill="black" stroke="black" points="1511.77,-592.008 1522.34,-591.267 1513.61,-585.256 1511.77,-592.008"/>
</g>
<!-- [root] root&#45;&gt;[root] provider.google (close) -->
<g id="edge33" class="edge"><title>[root] root&#45;&gt;[root] provider.google (close)</title>
<path fill="none" stroke="black" d="M1302.53,-511.487C1318.77,-468.573 1360.01,-359.529 1379.43,-308.194"/>
<polygon fill="black" stroke="black" points="1382.74,-309.324 1383.01,-298.733 1376.19,-306.848 1382.74,-309.324"/>
</g>
</g>
</svg>
