<?xml version="1.0" encoding="UTF-8" standalone="no"?>
<!DOCTYPE svg PUBLIC "-//W3C//DTD SVG 1.1//EN"
 "http://www.w3.org/Graphics/SVG/1.1/DTD/svg11.dtd">
<!-- Generated by graphviz version 2.38.0 (20140413.2041)
 -->
<!-- Title: %3 Pages: 1 -->
<svg width="1387pt" height="404pt"
 viewBox="0.00 0.00 1387.00 404.00" xmlns="http://www.w3.org/2000/svg" xmlns:xlink="http://www.w3.org/1999/xlink">
<g id="graph0" class="graph" transform="scale(1 1) rotate(0) translate(4 400)">
<title>%3</title>
<polygon fill="white" stroke="none" points="-4,4 -4,-400 1383,-400 1383,4 -4,4"/>
<!-- [root] aws_instance.secondserver -->
<g id="node1" class="node"><title>[root] aws_instance.secondserver</title>
<polygon fill="none" stroke="black" points="169,-252 0,-252 0,-216 169,-216 169,-252"/>
<text text-anchor="middle" x="84.5" y="-230.3" font-family="Times New Roman,serif" font-size="14.00">aws_instance.secondserver</text>
</g>
<!-- [root] aws_subnet.subnet1 -->
<g id="node3" class="node"><title>[root] aws_subnet.subnet1</title>
<polygon fill="none" stroke="black" points="247.5,-180 117.5,-180 117.5,-144 247.5,-144 247.5,-180"/>
<text text-anchor="middle" x="182.5" y="-158.3" font-family="Times New Roman,serif" font-size="14.00">aws_subnet.subnet1</text>
</g>
<!-- [root] aws_instance.secondserver&#45;&gt;[root] aws_subnet.subnet1 -->
<g id="edge1" class="edge"><title>[root] aws_instance.secondserver&#45;&gt;[root] aws_subnet.subnet1</title>
<path fill="none" stroke="black" d="M108.473,-215.876C121.05,-206.893 136.632,-195.763 150.252,-186.034"/>
<polygon fill="black" stroke="black" points="152.331,-188.85 158.434,-180.19 148.263,-183.154 152.331,-188.85"/>
</g>
<!-- [root] data.aws_ami.ubuntu -->
<g id="node8" class="node"><title>[root] data.aws_ami.ubuntu</title>
<polygon fill="none" stroke="black" points="157.5,-108 23.5,-108 23.5,-72 157.5,-72 157.5,-108"/>
<text text-anchor="middle" x="90.5" y="-86.3" font-family="Times New Roman,serif" font-size="14.00">data.aws_ami.ubuntu</text>
</g>
<!-- [root] aws_instance.secondserver&#45;&gt;[root] data.aws_ami.ubuntu -->
<g id="edge2" class="edge"><title>[root] aws_instance.secondserver&#45;&gt;[root] data.aws_ami.ubuntu</title>
<path fill="none" stroke="black" d="M85.2237,-215.871C86.2463,-191.67 88.1249,-147.211 89.3425,-118.393"/>
<polygon fill="black" stroke="black" points="92.8483,-118.328 89.7737,-108.189 85.8546,-118.033 92.8483,-118.328"/>
</g>
<!-- [root] aws_security_group.subnetsecurity -->
<g id="node2" class="node"><title>[root] aws_security_group.subnetsecurity</title>
<polygon fill="none" stroke="black" points="401.5,-252 187.5,-252 187.5,-216 401.5,-216 401.5,-252"/>
<text text-anchor="middle" x="294.5" y="-230.3" font-family="Times New Roman,serif" font-size="14.00">aws_security_group.subnetsecurity</text>
</g>
<!-- [root] aws_vpc.environment&#45;example&#45;two -->
<g id="node5" class="node"><title>[root] aws_vpc.environment&#45;example&#45;two</title>
<polygon fill="none" stroke="black" points="393,-108 178,-108 178,-72 393,-72 393,-108"/>
<text text-anchor="middle" x="285.5" y="-86.3" font-family="Times New Roman,serif" font-size="14.00">aws_vpc.environment&#45;example&#45;two</text>
</g>
<!-- [root] aws_security_group.subnetsecurity&#45;&gt;[root] aws_vpc.environment&#45;example&#45;two -->
<g id="edge3" class="edge"><title>[root] aws_security_group.subnetsecurity&#45;&gt;[root] aws_vpc.environment&#45;example&#45;two</title>
<path fill="none" stroke="black" d="M293.414,-215.871C291.881,-191.67 289.063,-147.211 287.236,-118.393"/>
<polygon fill="black" stroke="black" points="290.715,-117.948 286.589,-108.189 283.729,-118.391 290.715,-117.948"/>
</g>
<!-- [root] aws_subnet.subnet1&#45;&gt;[root] aws_vpc.environment&#45;example&#45;two -->
<g id="edge4" class="edge"><title>[root] aws_subnet.subnet1&#45;&gt;[root] aws_vpc.environment&#45;example&#45;two</title>
<path fill="none" stroke="black" d="M207.697,-143.876C220.914,-134.893 237.292,-123.763 251.607,-114.034"/>
<polygon fill="black" stroke="black" points="253.903,-116.705 260.207,-108.19 249.968,-110.916 253.903,-116.705"/>
</g>
<!-- [root] aws_subnet.subnet2 -->
<g id="node4" class="node"><title>[root] aws_subnet.subnet2</title>
<polygon fill="none" stroke="black" points="549.5,-252 419.5,-252 419.5,-216 549.5,-216 549.5,-252"/>
<text text-anchor="middle" x="484.5" y="-230.3" font-family="Times New Roman,serif" font-size="14.00">aws_subnet.subnet2</text>
</g>
<!-- [root] aws_subnet.subnet2&#45;&gt;[root] aws_vpc.environment&#45;example&#45;two -->
<g id="edge5" class="edge"><title>[root] aws_subnet.subnet2&#45;&gt;[root] aws_vpc.environment&#45;example&#45;two</title>
<path fill="none" stroke="black" d="M460.496,-215.871C424.862,-190.444 357.888,-142.654 317.927,-114.139"/>
<polygon fill="black" stroke="black" points="319.762,-111.149 309.589,-108.189 315.696,-116.847 319.762,-111.149"/>
</g>
<!-- [root] provider.aws -->
<g id="node13" class="node"><title>[root] provider.aws</title>
<polygon fill="none" stroke="black" points="188.5,-36 106.89,-18 188.5,-3.55271e-015 270.11,-18 188.5,-36"/>
<text text-anchor="middle" x="188.5" y="-14.3" font-family="Times New Roman,serif" font-size="14.00">provider.aws</text>
</g>
<!-- [root] aws_vpc.environment&#45;example&#45;two&#45;&gt;[root] provider.aws -->
<g id="edge6" class="edge"><title>[root] aws_vpc.environment&#45;example&#45;two&#45;&gt;[root] provider.aws</title>
<path fill="none" stroke="black" d="M261.522,-71.6966C247.359,-61.4757 229.41,-48.5225 214.851,-38.0163"/>
<polygon fill="black" stroke="black" points="216.883,-35.1661 206.725,-32.1523 212.786,-40.8424 216.883,-35.1661"/>
</g>
<!-- [root] azurerm_resource_group.azy_network -->
<g id="node6" class="node"><title>[root] azurerm_resource_group.azy_network</title>
<polygon fill="none" stroke="black" points="821.5,-180 589.5,-180 589.5,-144 821.5,-144 821.5,-180"/>
<text text-anchor="middle" x="705.5" y="-158.3" font-family="Times New Roman,serif" font-size="14.00">azurerm_resource_group.azy_network</text>
</g>
<!-- [root] provider.azurerm -->
<g id="node14" class="node"><title>[root] provider.azurerm</title>
<polygon fill="none" stroke="black" points="705.5,-108 602.609,-90 705.5,-72 808.391,-90 705.5,-108"/>
<text text-anchor="middle" x="705.5" y="-86.3" font-family="Times New Roman,serif" font-size="14.00">provider.azurerm</text>
</g>
<!-- [root] azurerm_resource_group.azy_network&#45;&gt;[root] provider.azurerm -->
<g id="edge7" class="edge"><title>[root] azurerm_resource_group.azy_network&#45;&gt;[root] provider.azurerm</title>
<path fill="none" stroke="black" d="M705.5,-143.697C705.5,-135.983 705.5,-126.712 705.5,-118.112"/>
<polygon fill="black" stroke="black" points="709,-118.104 705.5,-108.104 702,-118.104 709,-118.104"/>
</g>
<!-- [root] azurerm_virtual_network.blue_virtual_network -->
<g id="node7" class="node"><title>[root] azurerm_virtual_network.blue_virtual_network</title>
<polygon fill="none" stroke="black" points="843,-252 568,-252 568,-216 843,-216 843,-252"/>
<text text-anchor="middle" x="705.5" y="-230.3" font-family="Times New Roman,serif" font-size="14.00">azurerm_virtual_network.blue_virtual_network</text>
</g>
<!-- [root] azurerm_virtual_network.blue_virtual_network&#45;&gt;[root] azurerm_resource_group.azy_network -->
<g id="edge8" class="edge"><title>[root] azurerm_virtual_network.blue_virtual_network&#45;&gt;[root] azurerm_resource_group.azy_network</title>
<path fill="none" stroke="black" d="M705.5,-215.697C705.5,-207.983 705.5,-198.712 705.5,-190.112"/>
<polygon fill="black" stroke="black" points="709,-190.104 705.5,-180.104 702,-190.104 709,-190.104"/>
</g>
<!-- [root] data.aws_ami.ubuntu&#45;&gt;[root] provider.aws -->
<g id="edge9" class="edge"><title>[root] data.aws_ami.ubuntu&#45;&gt;[root] provider.aws</title>
<path fill="none" stroke="black" d="M114.473,-71.8761C128.874,-61.5903 147.216,-48.4888 162.039,-37.9007"/>
<polygon fill="black" stroke="black" points="164.201,-40.6578 170.304,-31.9973 160.132,-34.9616 164.201,-40.6578"/>
</g>
<!-- [root] google_compute_instance.firstserver -->
<g id="node9" class="node"><title>[root] google_compute_instance.firstserver</title>
<polygon fill="none" stroke="black" points="1359.5,-252 1137.5,-252 1137.5,-216 1359.5,-216 1359.5,-252"/>
<text text-anchor="middle" x="1248.5" y="-230.3" font-family="Times New Roman,serif" font-size="14.00">google_compute_instance.firstserver</text>
</g>
<!-- [root] google_compute_subnetwork.dev&#45;subnet -->
<g id="node11" class="node"><title>[root] google_compute_subnetwork.dev&#45;subnet</title>
<polygon fill="none" stroke="black" points="1363.5,-180 1115.5,-180 1115.5,-144 1363.5,-144 1363.5,-180"/>
<text text-anchor="middle" x="1239.5" y="-158.3" font-family="Times New Roman,serif" font-size="14.00">google_compute_subnetwork.dev&#45;subnet</text>
</g>
<!-- [root] google_compute_instance.firstserver&#45;&gt;[root] google_compute_subnetwork.dev&#45;subnet -->
<g id="edge10" class="edge"><title>[root] google_compute_instance.firstserver&#45;&gt;[root] google_compute_subnetwork.dev&#45;subnet</title>
<path fill="none" stroke="black" d="M1246.28,-215.697C1245.28,-207.983 1244.09,-198.712 1242.99,-190.112"/>
<polygon fill="black" stroke="black" points="1246.45,-189.576 1241.7,-180.104 1239.5,-190.469 1246.45,-189.576"/>
</g>
<!-- [root] google_compute_network.my_development_network -->
<g id="node10" class="node"><title>[root] google_compute_network.my_development_network</title>
<polygon fill="none" stroke="black" points="1379,-108 1064,-108 1064,-72 1379,-72 1379,-108"/>
<text text-anchor="middle" x="1221.5" y="-86.3" font-family="Times New Roman,serif" font-size="14.00">google_compute_network.my_development_network</text>
</g>
<!-- [root] provider.google -->
<g id="node15" class="node"><title>[root] provider.google</title>
<polygon fill="none" stroke="black" points="1119.5,-36 1022.98,-18 1119.5,-3.55271e-015 1216.02,-18 1119.5,-36"/>
<text text-anchor="middle" x="1119.5" y="-14.3" font-family="Times New Roman,serif" font-size="14.00">provider.google</text>
</g>
<!-- [root] google_compute_network.my_development_network&#45;&gt;[root] provider.google -->
<g id="edge11" class="edge"><title>[root] google_compute_network.my_development_network&#45;&gt;[root] provider.google</title>
<path fill="none" stroke="black" d="M1196.55,-71.8761C1181.76,-61.7256 1162.97,-48.8331 1147.65,-38.32"/>
<polygon fill="black" stroke="black" points="1149.31,-35.2163 1139.09,-32.4436 1145.35,-40.9879 1149.31,-35.2163"/>
</g>
<!-- [root] google_compute_subnetwork.dev&#45;subnet&#45;&gt;[root] google_compute_network.my_development_network -->
<g id="edge12" class="edge"><title>[root] google_compute_subnetwork.dev&#45;subnet&#45;&gt;[root] google_compute_network.my_development_network</title>
<path fill="none" stroke="black" d="M1235.05,-143.697C1233.05,-135.898 1230.63,-126.509 1228.4,-117.829"/>
<polygon fill="black" stroke="black" points="1231.78,-116.918 1225.9,-108.104 1225,-118.661 1231.78,-116.918"/>
</g>
<!-- [root] google_container_cluster.googlekubernates -->
<g id="node12" class="node"><title>[root] google_container_cluster.googlekubernates</title>
<polygon fill="none" stroke="black" points="1119.5,-252 861.5,-252 861.5,-216 1119.5,-216 1119.5,-252"/>
<text text-anchor="middle" x="990.5" y="-230.3" font-family="Times New Roman,serif" font-size="14.00">google_container_cluster.googlekubernates</text>
</g>
<!-- [root] google_container_cluster.googlekubernates&#45;&gt;[root] provider.google -->
<g id="edge13" class="edge"><title>[root] google_container_cluster.googlekubernates&#45;&gt;[root] provider.google</title>
<path fill="none" stroke="black" d="M994.331,-215.605C1001.82,-184.452 1020.71,-118.092 1054.5,-72 1064.15,-58.8327 1077.82,-47.0325 1090.13,-37.9277"/>
<polygon fill="black" stroke="black" points="1092.25,-40.7168 1098.37,-32.0714 1088.19,-35.0106 1092.25,-40.7168"/>
</g>
<!-- [root] var.client_id -->
<g id="node16" class="node"><title>[root] var.client_id</title>
<polygon fill="none" stroke="black" points="794,-36 715,-36 715,-3.55271e-015 800,-3.55271e-015 800,-30 794,-36"/>
<polyline fill="none" stroke="black" points="794,-36 794,-30 "/>
<polyline fill="none" stroke="black" points="800,-30 794,-30 "/>
<text text-anchor="middle" x="757.5" y="-14.3" font-family="Times New Roman,serif" font-size="14.00">var.client_id</text>
</g>
<!-- [root] provider.azurerm&#45;&gt;[root] var.client_id -->
<g id="edge24" class="edge"><title>[root] provider.azurerm&#45;&gt;[root] var.client_id</title>
<path fill="none" stroke="black" d="M716.783,-73.811C723.16,-65.2274 731.297,-54.2735 738.618,-44.4178"/>
<polygon fill="black" stroke="black" points="741.624,-46.2413 744.777,-36.1267 736.004,-42.067 741.624,-46.2413"/>
</g>
<!-- [root] var.client_secret -->
<g id="node17" class="node"><title>[root] var.client_secret</title>
<polygon fill="none" stroke="black" points="919,-36 818,-36 818,-3.55271e-015 925,-3.55271e-015 925,-30 919,-36"/>
<polyline fill="none" stroke="black" points="919,-36 919,-30 "/>
<polyline fill="none" stroke="black" points="925,-30 919,-30 "/>
<text text-anchor="middle" x="871.5" y="-14.3" font-family="Times New Roman,serif" font-size="14.00">var.client_secret</text>
</g>
<!-- [root] provider.azurerm&#45;&gt;[root] var.client_secret -->
<g id="edge25" class="edge"><title>[root] provider.azurerm&#45;&gt;[root] var.client_secret</title>
<path fill="none" stroke="black" d="M734.036,-76.9666C758.022,-66.8521 792.873,-52.1561 821.481,-40.0925"/>
<polygon fill="black" stroke="black" points="823.064,-43.2233 830.918,-36.1127 820.344,-36.7733 823.064,-43.2233"/>
</g>
<!-- [root] var.subscription_id -->
<g id="node18" class="node"><title>[root] var.subscription_id</title>
<polygon fill="none" stroke="black" points="584,-36 465,-36 465,-3.55271e-015 590,-3.55271e-015 590,-30 584,-36"/>
<polyline fill="none" stroke="black" points="584,-36 584,-30 "/>
<polyline fill="none" stroke="black" points="590,-30 584,-30 "/>
<text text-anchor="middle" x="527.5" y="-14.3" font-family="Times New Roman,serif" font-size="14.00">var.subscription_id</text>
</g>
<!-- [root] provider.azurerm&#45;&gt;[root] var.subscription_id -->
<g id="edge26" class="edge"><title>[root] provider.azurerm&#45;&gt;[root] var.subscription_id</title>
<path fill="none" stroke="black" d="M675.305,-77.1255C649.327,-66.9094 611.25,-51.9355 580.25,-39.7446"/>
<polygon fill="black" stroke="black" points="581.465,-36.4615 570.878,-36.0589 578.904,-42.9759 581.465,-36.4615"/>
</g>
<!-- [root] var.tenant_id -->
<g id="node19" class="node"><title>[root] var.tenant_id</title>
<polygon fill="none" stroke="black" points="691,-36 608,-36 608,-3.55271e-015 697,-3.55271e-015 697,-30 691,-36"/>
<polyline fill="none" stroke="black" points="691,-36 691,-30 "/>
<polyline fill="none" stroke="black" points="697,-30 691,-30 "/>
<text text-anchor="middle" x="652.5" y="-14.3" font-family="Times New Roman,serif" font-size="14.00">var.tenant_id</text>
</g>
<!-- [root] provider.azurerm&#45;&gt;[root] var.tenant_id -->
<g id="edge27" class="edge"><title>[root] provider.azurerm&#45;&gt;[root] var.tenant_id</title>
<path fill="none" stroke="black" d="M694,-73.811C687.435,-65.1407 679.039,-54.052 671.519,-44.1195"/>
<polygon fill="black" stroke="black" points="674.294,-41.9866 665.467,-36.1267 668.713,-46.2121 674.294,-41.9866"/>
</g>
<!-- [root] meta.count&#45;boundary (EachMode fixup) -->
<g id="node20" class="node"><title>[root] meta.count&#45;boundary (EachMode fixup)</title>
<ellipse fill="none" stroke="black" cx="542.5" cy="-306" rx="180.868" ry="18"/>
<text text-anchor="middle" x="542.5" y="-302.3" font-family="Times New Roman,serif" font-size="14.00">[root] meta.count&#45;boundary (EachMode fixup)</text>
</g>
<!-- [root] meta.count&#45;boundary (EachMode fixup)&#45;&gt;[root] aws_instance.secondserver -->
<g id="edge14" class="edge"><title>[root] meta.count&#45;boundary (EachMode fixup)&#45;&gt;[root] aws_instance.secondserver</title>
<path fill="none" stroke="black" d="M440.371,-291.085C369.825,-281.248 273.582,-267.385 179.055,-252.061"/>
<polygon fill="black" stroke="black" points="179.46,-248.58 169.027,-250.428 178.335,-255.489 179.46,-248.58"/>
</g>
<!-- [root] meta.count&#45;boundary (EachMode fixup)&#45;&gt;[root] aws_security_group.subnetsecurity -->
<g id="edge15" class="edge"><title>[root] meta.count&#45;boundary (EachMode fixup)&#45;&gt;[root] aws_security_group.subnetsecurity</title>
<path fill="none" stroke="black" d="M485.292,-288.853C449.444,-278.734 402.979,-265.619 364.88,-254.865"/>
<polygon fill="black" stroke="black" points="365.454,-251.391 354.88,-252.043 363.553,-258.128 365.454,-251.391"/>
</g>
<!-- [root] meta.count&#45;boundary (EachMode fixup)&#45;&gt;[root] aws_subnet.subnet2 -->
<g id="edge16" class="edge"><title>[root] meta.count&#45;boundary (EachMode fixup)&#45;&gt;[root] aws_subnet.subnet2</title>
<path fill="none" stroke="black" d="M528.163,-287.697C521.209,-279.305 512.73,-269.07 505.099,-259.861"/>
<polygon fill="black" stroke="black" points="507.747,-257.571 498.672,-252.104 502.357,-262.038 507.747,-257.571"/>
</g>
<!-- [root] meta.count&#45;boundary (EachMode fixup)&#45;&gt;[root] azurerm_virtual_network.blue_virtual_network -->
<g id="edge17" class="edge"><title>[root] meta.count&#45;boundary (EachMode fixup)&#45;&gt;[root] azurerm_virtual_network.blue_virtual_network</title>
<path fill="none" stroke="black" d="M581.129,-288.411C603.652,-278.739 632.281,-266.444 656.393,-256.089"/>
<polygon fill="black" stroke="black" points="657.924,-259.24 665.732,-252.078 655.162,-252.809 657.924,-259.24"/>
</g>
<!-- [root] meta.count&#45;boundary (EachMode fixup)&#45;&gt;[root] google_compute_instance.firstserver -->
<g id="edge18" class="edge"><title>[root] meta.count&#45;boundary (EachMode fixup)&#45;&gt;[root] google_compute_instance.firstserver</title>
<path fill="none" stroke="black" d="M671.907,-293.378C826.844,-279.452 1071.63,-257.412 1127.11,-251.995"/>
<polygon fill="black" stroke="black" points="1127.79,-255.444 1137.38,-250.943 1127.08,-248.48 1127.79,-255.444"/>
</g>
<!-- [root] meta.count&#45;boundary (EachMode fixup)&#45;&gt;[root] google_container_cluster.googlekubernates -->
<g id="edge19" class="edge"><title>[root] meta.count&#45;boundary (EachMode fixup)&#45;&gt;[root] google_container_cluster.googlekubernates</title>
<path fill="none" stroke="black" d="M635.054,-290.538C703.45,-279.851 797.148,-265.211 871.172,-253.645"/>
<polygon fill="black" stroke="black" points="872.142,-257.036 881.482,-252.034 871.061,-250.12 872.142,-257.036"/>
</g>
<!-- [root] provider.aws (close) -->
<g id="node21" class="node"><title>[root] provider.aws (close)</title>
<ellipse fill="none" stroke="black" cx="235.5" cy="-306" rx="108.581" ry="18"/>
<text text-anchor="middle" x="235.5" y="-302.3" font-family="Times New Roman,serif" font-size="14.00">[root] provider.aws (close)</text>
</g>
<!-- [root] provider.aws (close)&#45;&gt;[root] aws_instance.secondserver -->
<g id="edge20" class="edge"><title>[root] provider.aws (close)&#45;&gt;[root] aws_instance.secondserver</title>
<path fill="none" stroke="black" d="M200.858,-288.941C179.966,-279.256 153.101,-266.802 130.449,-256.301"/>
<polygon fill="black" stroke="black" points="131.898,-253.115 121.353,-252.084 128.954,-259.466 131.898,-253.115"/>
</g>
<!-- [root] provider.aws (close)&#45;&gt;[root] aws_security_group.subnetsecurity -->
<g id="edge21" class="edge"><title>[root] provider.aws (close)&#45;&gt;[root] aws_security_group.subnetsecurity</title>
<path fill="none" stroke="black" d="M249.782,-288.055C256.851,-279.668 265.526,-269.376 273.347,-260.096"/>
<polygon fill="black" stroke="black" points="276.171,-262.177 279.939,-252.275 270.818,-257.666 276.171,-262.177"/>
</g>
<!-- [root] provider.aws (close)&#45;&gt;[root] aws_subnet.subnet2 -->
<g id="edge22" class="edge"><title>[root] provider.aws (close)&#45;&gt;[root] aws_subnet.subnet2</title>
<path fill="none" stroke="black" d="M288.002,-290.24C324.647,-279.939 373.97,-266.073 414.032,-254.81"/>
<polygon fill="black" stroke="black" points="415.061,-258.157 423.741,-252.081 413.167,-251.418 415.061,-258.157"/>
</g>
<!-- [root] provider.azurerm (close) -->
<g id="node22" class="node"><title>[root] provider.azurerm (close)</title>
<ellipse fill="none" stroke="black" cx="864.5" cy="-306" rx="123.478" ry="18"/>
<text text-anchor="middle" x="864.5" y="-302.3" font-family="Times New Roman,serif" font-size="14.00">[root] provider.azurerm (close)</text>
</g>
<!-- [root] provider.azurerm (close)&#45;&gt;[root] azurerm_virtual_network.blue_virtual_network -->
<g id="edge23" class="edge"><title>[root] provider.azurerm (close)&#45;&gt;[root] azurerm_virtual_network.blue_virtual_network</title>
<path fill="none" stroke="black" d="M827.623,-288.765C805.513,-279.031 777.159,-266.548 753.338,-256.061"/>
<polygon fill="black" stroke="black" points="754.679,-252.827 744.116,-252.001 751.858,-259.234 754.679,-252.827"/>
</g>
<!-- [root] provider.google (close) -->
<g id="node23" class="node"><title>[root] provider.google (close)</title>
<ellipse fill="none" stroke="black" cx="1124.5" cy="-306" rx="118.879" ry="18"/>
<text text-anchor="middle" x="1124.5" y="-302.3" font-family="Times New Roman,serif" font-size="14.00">[root] provider.google (close)</text>
</g>
<!-- [root] provider.google (close)&#45;&gt;[root] google_compute_instance.firstserver -->
<g id="edge28" class="edge"><title>[root] provider.google (close)&#45;&gt;[root] google_compute_instance.firstserver</title>
<path fill="none" stroke="black" d="M1153.89,-288.411C1170.35,-279.115 1191.11,-267.398 1208.98,-257.308"/>
<polygon fill="black" stroke="black" points="1211.04,-260.165 1218.03,-252.201 1207.6,-254.069 1211.04,-260.165"/>
</g>
<!-- [root] provider.google (close)&#45;&gt;[root] google_container_cluster.googlekubernates -->
<g id="edge29" class="edge"><title>[root] provider.google (close)&#45;&gt;[root] google_container_cluster.googlekubernates</title>
<path fill="none" stroke="black" d="M1093.08,-288.588C1074.92,-279.099 1051.84,-267.043 1032.17,-256.77"/>
<polygon fill="black" stroke="black" points="1033.6,-253.568 1023.12,-252.04 1030.36,-259.772 1033.6,-253.568"/>
</g>
<!-- [root] root -->
<g id="node24" class="node"><title>[root] root</title>
<ellipse fill="none" stroke="black" cx="703.5" cy="-378" rx="49.2915" ry="18"/>
<text text-anchor="middle" x="703.5" y="-374.3" font-family="Times New Roman,serif" font-size="14.00">[root] root</text>
</g>
<!-- [root] root&#45;&gt;[root] meta.count&#45;boundary (EachMode fixup) -->
<g id="edge30" class="edge"><title>[root] root&#45;&gt;[root] meta.count&#45;boundary (EachMode fixup)</title>
<path fill="none" stroke="black" d="M672.838,-363.669C649.415,-353.485 616.711,-339.266 589.923,-327.619"/>
<polygon fill="black" stroke="black" points="591.286,-324.395 580.719,-323.617 588.494,-330.814 591.286,-324.395"/>
</g>
<!-- [root] root&#45;&gt;[root] provider.aws (close) -->
<g id="edge31" class="edge"><title>[root] root&#45;&gt;[root] provider.aws (close)</title>
<path fill="none" stroke="black" d="M658.626,-370.288C581.653,-358.775 423.133,-335.065 323.475,-320.159"/>
<polygon fill="black" stroke="black" points="323.829,-316.673 313.421,-318.655 322.793,-323.596 323.829,-316.673"/>
</g>
<!-- [root] root&#45;&gt;[root] provider.azurerm (close) -->
<g id="edge32" class="edge"><title>[root] root&#45;&gt;[root] provider.azurerm (close)</title>
<path fill="none" stroke="black" d="M734.162,-363.669C757.83,-353.378 790.973,-338.968 817.915,-327.254"/>
<polygon fill="black" stroke="black" points="819.385,-330.432 827.16,-323.235 816.594,-324.012 819.385,-330.432"/>
</g>
<!-- [root] root&#45;&gt;[root] provider.google (close) -->
<g id="edge33" class="edge"><title>[root] root&#45;&gt;[root] provider.google (close)</title>
<path fill="none" stroke="black" d="M747.363,-369.707C815.804,-358.327 949.299,-336.131 1037.69,-321.433"/>
<polygon fill="black" stroke="black" points="1038.42,-324.861 1047.71,-319.768 1037.27,-317.956 1038.42,-324.861"/>
</g>
</g>
</svg>
