<?xml version="1.0" encoding="UTF-8" standalone="no"?>
<!DOCTYPE svg PUBLIC "-//W3C//DTD SVG 1.1//EN"
 "http://www.w3.org/Graphics/SVG/1.1/DTD/svg11.dtd">
<!-- Generated by graphviz version 2.38.0 (20140413.2041)
 -->
<!-- Title: %3 Pages: 1 -->
<svg width="3463pt" height="2489pt"
 viewBox="0.00 0.00 3463.12 2489.29" xmlns="http://www.w3.org/2000/svg" xmlns:xlink="http://www.w3.org/1999/xlink">
<g id="graph0" class="graph" transform="scale(1 1) rotate(0) translate(4 2485.29)">
<title>%3</title>
<polygon fill="white" stroke="none" points="-4,4 -4,-2485.29 3459.12,-2485.29 3459.12,4 -4,4"/>
<!-- [root] aws_instance.secondserver -->
<g id="node1" class="node"><title>[root] aws_instance.secondserver</title>
<polygon fill="none" stroke="black" points="441.958,-2056.67 272.958,-2056.67 272.958,-2020.67 441.958,-2020.67 441.958,-2056.67"/>
<text text-anchor="middle" x="357.458" y="-2034.97" font-family="Times New Roman,serif" font-size="14.00">aws_instance.secondserver</text>
</g>
<!-- [root] aws_subnet.subnet1 -->
<g id="node3" class="node"><title>[root] aws_subnet.subnet1</title>
<polygon fill="none" stroke="black" points="752.754,-2333.82 622.754,-2333.82 622.754,-2297.82 752.754,-2297.82 752.754,-2333.82"/>
<text text-anchor="middle" x="687.754" y="-2312.12" font-family="Times New Roman,serif" font-size="14.00">aws_subnet.subnet1</text>
</g>
<!-- [root] aws_instance.secondserver&#45;&gt;[root] aws_subnet.subnet1 -->
<g id="edge1" class="edge"><title>[root] aws_instance.secondserver&#45;&gt;[root] aws_subnet.subnet1</title>
<path fill="none" stroke="black" d="M379.129,-2056.86C436.522,-2105.02 592.534,-2235.92 658.101,-2290.94"/>
<polygon fill="black" stroke="black" points="656.092,-2293.83 666.002,-2297.57 660.592,-2288.46 656.092,-2293.83"/>
</g>
<!-- [root] data.aws_ami.ubuntu -->
<g id="node8" class="node"><title>[root] data.aws_ami.ubuntu</title>
<polygon fill="none" stroke="black" points="134,-1258.65 1.13687e-013,-1258.65 1.13687e-013,-1222.65 134,-1222.65 134,-1258.65"/>
<text text-anchor="middle" x="67" y="-1236.95" font-family="Times New Roman,serif" font-size="14.00">data.aws_ami.ubuntu</text>
</g>
<!-- [root] aws_instance.secondserver&#45;&gt;[root] data.aws_ami.ubuntu -->
<g id="edge2" class="edge"><title>[root] aws_instance.secondserver&#45;&gt;[root] data.aws_ami.ubuntu</title>
<path fill="none" stroke="black" d="M350.845,-2020.5C312.941,-1916.36 123.325,-1395.4 77.1497,-1268.53"/>
<polygon fill="black" stroke="black" points="80.3112,-1266.99 73.602,-1258.79 73.7334,-1269.38 80.3112,-1266.99"/>
</g>
<!-- [root] aws_security_group.subnetsecurity -->
<g id="node2" class="node"><title>[root] aws_security_group.subnetsecurity</title>
<polygon fill="none" stroke="black" points="2366.56,-2056.67 2152.56,-2056.67 2152.56,-2020.67 2366.56,-2020.67 2366.56,-2056.67"/>
<text text-anchor="middle" x="2259.56" y="-2034.97" font-family="Times New Roman,serif" font-size="14.00">aws_security_group.subnetsecurity</text>
</g>
<!-- [root] aws_vpc.environment&#45;example&#45;two -->
<g id="node5" class="node"><title>[root] aws_vpc.environment&#45;example&#45;two</title>
<polygon fill="none" stroke="black" points="1200.42,-2481.29 985.422,-2481.29 985.422,-2445.29 1200.42,-2445.29 1200.42,-2481.29"/>
<text text-anchor="middle" x="1092.92" y="-2459.59" font-family="Times New Roman,serif" font-size="14.00">aws_vpc.environment&#45;example&#45;two</text>
</g>
<!-- [root] aws_security_group.subnetsecurity&#45;&gt;[root] aws_vpc.environment&#45;example&#45;two -->
<g id="edge3" class="edge"><title>[root] aws_security_group.subnetsecurity&#45;&gt;[root] aws_vpc.environment&#45;example&#45;two</title>
<path fill="none" stroke="black" d="M2209.8,-2056.78C2021.84,-2125.19 1355.43,-2367.75 1152.2,-2441.72"/>
<polygon fill="black" stroke="black" points="1150.79,-2438.51 1142.59,-2445.21 1153.19,-2445.08 1150.79,-2438.51"/>
</g>
<!-- [root] aws_subnet.subnet1&#45;&gt;[root] aws_vpc.environment&#45;example&#45;two -->
<g id="edge4" class="edge"><title>[root] aws_subnet.subnet1&#45;&gt;[root] aws_vpc.environment&#45;example&#45;two</title>
<path fill="none" stroke="black" d="M737.435,-2333.91C812.262,-2361.14 953.626,-2412.59 1033.7,-2441.74"/>
<polygon fill="black" stroke="black" points="1032.56,-2445.05 1043.15,-2445.18 1034.95,-2438.47 1032.56,-2445.05"/>
</g>
<!-- [root] aws_subnet.subnet2 -->
<g id="node4" class="node"><title>[root] aws_subnet.subnet2</title>
<polygon fill="none" stroke="black" points="1589.09,-2481.29 1459.09,-2481.29 1459.09,-2445.29 1589.09,-2445.29 1589.09,-2481.29"/>
<text text-anchor="middle" x="1524.09" y="-2459.59" font-family="Times New Roman,serif" font-size="14.00">aws_subnet.subnet2</text>
</g>
<!-- [root] aws_subnet.subnet2&#45;&gt;[root] aws_vpc.environment&#45;example&#45;two -->
<g id="edge5" class="edge"><title>[root] aws_subnet.subnet2&#45;&gt;[root] aws_vpc.environment&#45;example&#45;two</title>
<path fill="none" stroke="black" d="M1459.08,-2463.29C1393.42,-2463.29 1290.56,-2463.29 1210.56,-2463.29"/>
<polygon fill="black" stroke="black" points="1210.42,-2459.79 1200.42,-2463.29 1210.42,-2466.79 1210.42,-2459.79"/>
</g>
<!-- [root] provider.aws -->
<g id="node13" class="node"><title>[root] provider.aws</title>
<polygon fill="none" stroke="black" points="141.872,-1683.27 60.2616,-1665.27 141.872,-1647.27 223.483,-1665.27 141.872,-1683.27"/>
<text text-anchor="middle" x="141.872" y="-1661.57" font-family="Times New Roman,serif" font-size="14.00">provider.aws</text>
</g>
<!-- [root] aws_vpc.environment&#45;example&#45;two&#45;&gt;[root] provider.aws -->
<g id="edge6" class="edge"><title>[root] aws_vpc.environment&#45;example&#45;two&#45;&gt;[root] provider.aws</title>
<path fill="none" stroke="black" d="M1071.27,-2445.13C944.797,-2339 302.489,-1800.04 166.991,-1686.34"/>
<polygon fill="black" stroke="black" points="169.066,-1683.52 159.156,-1679.77 164.567,-1688.88 169.066,-1683.52"/>
</g>
<!-- [root] azurerm_resource_group.azy_network -->
<g id="node6" class="node"><title>[root] azurerm_resource_group.azy_network</title>
<polygon fill="none" stroke="black" points="2854.02,-1258.65 2622.02,-1258.65 2622.02,-1222.65 2854.02,-1222.65 2854.02,-1258.65"/>
<text text-anchor="middle" x="2738.02" y="-1236.95" font-family="Times New Roman,serif" font-size="14.00">azurerm_resource_group.azy_network</text>
</g>
<!-- [root] provider.azurerm -->
<g id="node14" class="node"><title>[root] provider.azurerm</title>
<polygon fill="none" stroke="black" points="3225.96,-1258.65 3123.07,-1240.65 3225.96,-1222.65 3328.85,-1240.65 3225.96,-1258.65"/>
<text text-anchor="middle" x="3225.96" y="-1236.95" font-family="Times New Roman,serif" font-size="14.00">provider.azurerm</text>
</g>
<!-- [root] azurerm_resource_group.azy_network&#45;&gt;[root] provider.azurerm -->
<g id="edge7" class="edge"><title>[root] azurerm_resource_group.azy_network&#45;&gt;[root] provider.azurerm</title>
<path fill="none" stroke="black" d="M2854.27,-1240.65C2932.5,-1240.65 3035.14,-1240.65 3112.73,-1240.65"/>
<polygon fill="black" stroke="black" points="3113.03,-1244.15 3123.03,-1240.65 3113.03,-1237.15 3113.03,-1244.15"/>
</g>
<!-- [root] azurerm_virtual_network.blue_virtual_network -->
<g id="node7" class="node"><title>[root] azurerm_virtual_network.blue_virtual_network</title>
<polygon fill="none" stroke="black" points="2687.52,-1258.65 2412.52,-1258.65 2412.52,-1222.65 2687.52,-1222.65 2687.52,-1258.65"/>
<text text-anchor="middle" x="2550.02" y="-1236.95" font-family="Times New Roman,serif" font-size="14.00">azurerm_virtual_network.blue_virtual_network</text>
</g>
<!-- [root] azurerm_virtual_network.blue_virtual_network&#45;&gt;[root] azurerm_resource_group.azy_network -->
<g id="edge8" class="edge"><title>[root] azurerm_virtual_network.blue_virtual_network&#45;&gt;[root] azurerm_resource_group.azy_network</title>
<path fill="none" stroke="black" d="M2687.63,-1240.65C2687.69,-1240.65 2687.75,-1240.65 2687.8,-1240.65"/>
<polygon fill="black" stroke="black" points="2677.97,-1244.15 2687.97,-1240.65 2677.97,-1237.15 2677.97,-1244.15"/>
</g>
<!-- [root] data.aws_ami.ubuntu&#45;&gt;[root] provider.aws -->
<g id="edge9" class="edge"><title>[root] data.aws_ami.ubuntu&#45;&gt;[root] provider.aws</title>
<path fill="none" stroke="black" d="M70.2172,-1258.89C82.0037,-1325.74 122.872,-1557.51 137.012,-1637.71"/>
<polygon fill="black" stroke="black" points="133.567,-1638.32 138.75,-1647.56 140.461,-1637.11 133.567,-1638.32"/>
</g>
<!-- [root] google_compute_instance.firstserver -->
<g id="node9" class="node"><title>[root] google_compute_instance.firstserver</title>
<polygon fill="none" stroke="black" points="1635.09,-36 1413.09,-36 1413.09,-0 1635.09,-0 1635.09,-36"/>
<text text-anchor="middle" x="1524.09" y="-14.3" font-family="Times New Roman,serif" font-size="14.00">google_compute_instance.firstserver</text>
</g>
<!-- [root] google_compute_subnetwork.dev&#45;subnet -->
<g id="node11" class="node"><title>[root] google_compute_subnetwork.dev&#45;subnet</title>
<polygon fill="none" stroke="black" points="265.872,-834.026 17.8721,-834.026 17.8721,-798.026 265.872,-798.026 265.872,-834.026"/>
<text text-anchor="middle" x="141.872" y="-812.326" font-family="Times New Roman,serif" font-size="14.00">google_compute_subnetwork.dev&#45;subnet</text>
</g>
<!-- [root] google_compute_instance.firstserver&#45;&gt;[root] google_compute_subnetwork.dev&#45;subnet -->
<g id="edge10" class="edge"><title>[root] google_compute_instance.firstserver&#45;&gt;[root] google_compute_subnetwork.dev&#45;subnet</title>
<path fill="none" stroke="black" d="M1492.63,-36.1673C1309.98,-141.617 387.147,-674.416 182.224,-792.728"/>
<polygon fill="black" stroke="black" points="180.2,-789.856 173.29,-797.887 183.7,-795.918 180.2,-789.856"/>
</g>
<!-- [root] google_compute_network.my_development_network -->
<g id="node10" class="node"><title>[root] google_compute_network.my_development_network</title>
<polygon fill="none" stroke="black" points="514.958,-460.621 199.958,-460.621 199.958,-424.621 514.958,-424.621 514.958,-460.621"/>
<text text-anchor="middle" x="357.458" y="-438.921" font-family="Times New Roman,serif" font-size="14.00">google_compute_network.my_development_network</text>
</g>
<!-- [root] provider.google -->
<g id="node15" class="node"><title>[root] provider.google</title>
<polygon fill="none" stroke="black" points="687.754,-183.469 591.231,-165.469 687.754,-147.469 784.277,-165.469 687.754,-183.469"/>
<text text-anchor="middle" x="687.754" y="-161.769" font-family="Times New Roman,serif" font-size="14.00">provider.google</text>
</g>
<!-- [root] google_compute_network.my_development_network&#45;&gt;[root] provider.google -->
<g id="edge11" class="edge"><title>[root] google_compute_network.my_development_network&#45;&gt;[root] provider.google</title>
<path fill="none" stroke="black" d="M379.129,-424.436C437.779,-375.223 599.413,-239.596 662.275,-186.848"/>
<polygon fill="black" stroke="black" points="664.716,-189.369 670.127,-180.26 660.217,-184.007 664.716,-189.369"/>
</g>
<!-- [root] google_compute_subnetwork.dev&#45;subnet&#45;&gt;[root] google_compute_network.my_development_network -->
<g id="edge12" class="edge"><title>[root] google_compute_subnetwork.dev&#45;subnet&#45;&gt;[root] google_compute_network.my_development_network</title>
<path fill="none" stroke="black" d="M152.27,-798.016C187.125,-737.646 299.971,-542.19 341.73,-469.862"/>
<polygon fill="black" stroke="black" points="344.942,-471.298 346.911,-460.887 338.88,-467.798 344.942,-471.298"/>
</g>
<!-- [root] google_container_cluster.googlekubernates -->
<g id="node12" class="node"><title>[root] google_container_cluster.googlekubernates</title>
<polygon fill="none" stroke="black" points="1221.92,-36 963.922,-36 963.922,-2.55795e-013 1221.92,-2.55795e-013 1221.92,-36"/>
<text text-anchor="middle" x="1092.92" y="-14.3" font-family="Times New Roman,serif" font-size="14.00">google_container_cluster.googlekubernates</text>
</g>
<!-- [root] google_container_cluster.googlekubernates&#45;&gt;[root] provider.google -->
<g id="edge13" class="edge"><title>[root] google_container_cluster.googlekubernates&#45;&gt;[root] provider.google</title>
<path fill="none" stroke="black" d="M1043.24,-36.0826C962.853,-65.3412 805.673,-122.55 730.193,-150.022"/>
<polygon fill="black" stroke="black" points="728.735,-146.829 720.535,-153.538 731.129,-153.406 728.735,-146.829"/>
</g>
<!-- [root] var.client_id -->
<g id="node16" class="node"><title>[root] var.client_id</title>
<polygon fill="none" stroke="black" points="3089.51,-1095.95 3010.51,-1095.95 3010.51,-1059.95 3095.51,-1059.95 3095.51,-1089.95 3089.51,-1095.95"/>
<polyline fill="none" stroke="black" points="3089.51,-1095.95 3089.51,-1089.95 "/>
<polyline fill="none" stroke="black" points="3095.51,-1089.95 3089.51,-1089.95 "/>
<text text-anchor="middle" x="3053.01" y="-1074.25" font-family="Times New Roman,serif" font-size="14.00">var.client_id</text>
</g>
<!-- [root] provider.azurerm&#45;&gt;[root] var.client_id -->
<g id="edge24" class="edge"><title>[root] provider.azurerm&#45;&gt;[root] var.client_id</title>
<path fill="none" stroke="black" d="M3209.69,-1225.34C3179.78,-1197.2 3115.81,-1137.02 3079.54,-1102.91"/>
<polygon fill="black" stroke="black" points="3081.93,-1100.34 3072.24,-1096.04 3077.13,-1105.44 3081.93,-1100.34"/>
</g>
<!-- [root] var.client_secret -->
<g id="node17" class="node"><title>[root] var.client_secret</title>
<polygon fill="none" stroke="black" points="3432.11,-1081.98 3331.11,-1081.98 3331.11,-1045.98 3438.11,-1045.98 3438.11,-1075.98 3432.11,-1081.98"/>
<polyline fill="none" stroke="black" points="3432.11,-1081.98 3432.11,-1075.98 "/>
<polyline fill="none" stroke="black" points="3438.11,-1075.98 3432.11,-1075.98 "/>
<text text-anchor="middle" x="3384.61" y="-1060.28" font-family="Times New Roman,serif" font-size="14.00">var.client_secret</text>
</g>
<!-- [root] provider.azurerm&#45;&gt;[root] var.client_secret -->
<g id="edge25" class="edge"><title>[root] provider.azurerm&#45;&gt;[root] var.client_secret</title>
<path fill="none" stroke="black" d="M3240.04,-1224.97C3267.44,-1194.46 3328.16,-1126.84 3361.53,-1089.68"/>
<polygon fill="black" stroke="black" points="3364.13,-1092.01 3368.21,-1082.24 3358.93,-1087.34 3364.13,-1092.01"/>
</g>
<!-- [root] var.subscription_id -->
<g id="node18" class="node"><title>[root] var.subscription_id</title>
<polygon fill="none" stroke="black" points="3449.12,-1427.78 3330.12,-1427.78 3330.12,-1391.78 3455.12,-1391.78 3455.12,-1421.78 3449.12,-1427.78"/>
<polyline fill="none" stroke="black" points="3449.12,-1427.78 3449.12,-1421.78 "/>
<polyline fill="none" stroke="black" points="3455.12,-1421.78 3449.12,-1421.78 "/>
<text text-anchor="middle" x="3392.62" y="-1406.08" font-family="Times New Roman,serif" font-size="14.00">var.subscription_id</text>
</g>
<!-- [root] provider.azurerm&#45;&gt;[root] var.subscription_id -->
<g id="edge26" class="edge"><title>[root] provider.azurerm&#45;&gt;[root] var.subscription_id</title>
<path fill="none" stroke="black" d="M3241.34,-1256.25C3270.11,-1285.45 3332.31,-1348.57 3367.33,-1384.11"/>
<polygon fill="black" stroke="black" points="3365.27,-1387.01 3374.78,-1391.68 3370.26,-1382.1 3365.27,-1387.01"/>
</g>
<!-- [root] var.tenant_id -->
<g id="node19" class="node"><title>[root] var.tenant_id</title>
<polygon fill="none" stroke="black" points="3091.51,-1421.34 3008.51,-1421.34 3008.51,-1385.34 3097.51,-1385.34 3097.51,-1415.34 3091.51,-1421.34"/>
<polyline fill="none" stroke="black" points="3091.51,-1421.34 3091.51,-1415.34 "/>
<polyline fill="none" stroke="black" points="3097.51,-1415.34 3091.51,-1415.34 "/>
<text text-anchor="middle" x="3053.01" y="-1399.64" font-family="Times New Roman,serif" font-size="14.00">var.tenant_id</text>
</g>
<!-- [root] provider.azurerm&#45;&gt;[root] var.tenant_id -->
<g id="edge27" class="edge"><title>[root] provider.azurerm&#45;&gt;[root] var.tenant_id</title>
<path fill="none" stroke="black" d="M3209.69,-1255.95C3179.78,-1284.09 3115.81,-1344.27 3079.54,-1378.39"/>
<polygon fill="black" stroke="black" points="3077.13,-1375.85 3072.24,-1385.25 3081.93,-1380.95 3077.13,-1375.85"/>
</g>
<!-- [root] meta.count&#45;boundary (EachMode fixup) -->
<g id="node20" class="node"><title>[root] meta.count&#45;boundary (EachMode fixup)</title>
<ellipse fill="none" stroke="black" cx="2475.14" cy="-1665.27" rx="180.868" ry="18"/>
<text text-anchor="middle" x="2475.14" y="-1661.57" font-family="Times New Roman,serif" font-size="14.00">[root] meta.count&#45;boundary (EachMode fixup)</text>
</g>
<!-- [root] meta.count&#45;boundary (EachMode fixup)&#45;&gt;[root] aws_instance.secondserver -->
<g id="edge14" class="edge"><title>[root] meta.count&#45;boundary (EachMode fixup)&#45;&gt;[root] aws_instance.secondserver</title>
<path fill="none" stroke="black" d="M2386.17,-1680.95C2042.69,-1741.52 804.696,-1959.81 451.896,-2022.02"/>
<polygon fill="black" stroke="black" points="451.209,-2018.59 441.968,-2023.77 452.424,-2025.48 451.209,-2018.59"/>
</g>
<!-- [root] meta.count&#45;boundary (EachMode fixup)&#45;&gt;[root] aws_security_group.subnetsecurity -->
<g id="edge15" class="edge"><title>[root] meta.count&#45;boundary (EachMode fixup)&#45;&gt;[root] aws_security_group.subnetsecurity</title>
<path fill="none" stroke="black" d="M2464.75,-1683.28C2429.89,-1743.65 2317.04,-1939.1 2275.29,-2011.43"/>
<polygon fill="black" stroke="black" points="2272.07,-2010 2270.1,-2020.41 2278.14,-2013.5 2272.07,-2010"/>
</g>
<!-- [root] meta.count&#45;boundary (EachMode fixup)&#45;&gt;[root] aws_subnet.subnet2 -->
<g id="edge16" class="edge"><title>[root] meta.count&#45;boundary (EachMode fixup)&#45;&gt;[root] aws_subnet.subnet2</title>
<path fill="none" stroke="black" d="M2453.49,-1683.43C2328.38,-1788.41 1698.51,-2316.94 1553.77,-2438.39"/>
<polygon fill="black" stroke="black" points="1551.12,-2436.04 1545.71,-2445.15 1555.62,-2441.41 1551.12,-2436.04"/>
</g>
<!-- [root] meta.count&#45;boundary (EachMode fixup)&#45;&gt;[root] azurerm_virtual_network.blue_virtual_network -->
<g id="edge17" class="edge"><title>[root] meta.count&#45;boundary (EachMode fixup)&#45;&gt;[root] azurerm_virtual_network.blue_virtual_network</title>
<path fill="none" stroke="black" d="M2478.36,-1647.02C2490.12,-1580.33 2530.83,-1349.46 2545.06,-1268.76"/>
<polygon fill="black" stroke="black" points="2548.52,-1269.28 2546.81,-1258.82 2541.63,-1268.06 2548.52,-1269.28"/>
</g>
<!-- [root] meta.count&#45;boundary (EachMode fixup)&#45;&gt;[root] google_compute_instance.firstserver -->
<g id="edge18" class="edge"><title>[root] meta.count&#45;boundary (EachMode fixup)&#45;&gt;[root] google_compute_instance.firstserver</title>
<path fill="none" stroke="black" d="M2464.63,-1647.05C2369.25,-1481.86 1654.79,-244.374 1539.72,-45.0616"/>
<polygon fill="black" stroke="black" points="1542.58,-43.0239 1534.55,-36.1137 1536.52,-46.524 1542.58,-43.0239"/>
</g>
<!-- [root] meta.count&#45;boundary (EachMode fixup)&#45;&gt;[root] google_container_cluster.googlekubernates -->
<g id="edge19" class="edge"><title>[root] meta.count&#45;boundary (EachMode fixup)&#45;&gt;[root] google_container_cluster.googlekubernates</title>
<path fill="none" stroke="black" d="M2460.09,-1647.33C2322.15,-1482.94 1278.93,-239.679 1114.67,-43.9132"/>
<polygon fill="black" stroke="black" points="1117.25,-41.5428 1108.14,-36.1321 1111.88,-46.0424 1117.25,-41.5428"/>
</g>
<!-- [root] provider.aws (close) -->
<g id="node21" class="node"><title>[root] provider.aws (close)</title>
<ellipse fill="none" stroke="black" cx="1929.26" cy="-2315.82" rx="108.581" ry="18"/>
<text text-anchor="middle" x="1929.26" y="-2312.12" font-family="Times New Roman,serif" font-size="14.00">[root] provider.aws (close)</text>
</g>
<!-- [root] provider.aws (close)&#45;&gt;[root] aws_instance.secondserver -->
<g id="edge20" class="edge"><title>[root] provider.aws (close)&#45;&gt;[root] aws_instance.secondserver</title>
<path fill="none" stroke="black" d="M1854.77,-2302.69C1596.44,-2257.14 739.231,-2105.99 452.109,-2055.36"/>
<polygon fill="black" stroke="black" points="452.594,-2051.89 442.138,-2053.6 451.378,-2058.79 452.594,-2051.89"/>
</g>
<!-- [root] provider.aws (close)&#45;&gt;[root] aws_security_group.subnetsecurity -->
<g id="edge21" class="edge"><title>[root] provider.aws (close)&#45;&gt;[root] aws_security_group.subnetsecurity</title>
<path fill="none" stroke="black" d="M1950.43,-2298.06C2007.36,-2250.29 2163.94,-2118.9 2229.78,-2063.66"/>
<polygon fill="black" stroke="black" points="2232.3,-2066.11 2237.71,-2057 2227.8,-2060.75 2232.3,-2066.11"/>
</g>
<!-- [root] provider.aws (close)&#45;&gt;[root] aws_subnet.subnet2 -->
<g id="edge22" class="edge"><title>[root] provider.aws (close)&#45;&gt;[root] aws_subnet.subnet2</title>
<path fill="none" stroke="black" d="M1883.96,-2332.31C1810.44,-2359.07 1665.16,-2411.95 1583.47,-2441.68"/>
<polygon fill="black" stroke="black" points="1582.03,-2438.48 1573.83,-2445.19 1584.42,-2445.06 1582.03,-2438.48"/>
</g>
<!-- [root] provider.azurerm (close) -->
<g id="node22" class="node"><title>[root] provider.azurerm (close)</title>
<ellipse fill="none" stroke="black" cx="2475.14" cy="-816.026" rx="123.478" ry="18"/>
<text text-anchor="middle" x="2475.14" y="-812.326" font-family="Times New Roman,serif" font-size="14.00">[root] provider.azurerm (close)</text>
</g>
<!-- [root] provider.azurerm (close)&#45;&gt;[root] azurerm_virtual_network.blue_virtual_network -->
<g id="edge23" class="edge"><title>[root] provider.azurerm (close)&#45;&gt;[root] azurerm_virtual_network.blue_virtual_network</title>
<path fill="none" stroke="black" d="M2478.36,-834.271C2490.12,-900.964 2530.83,-1131.84 2545.06,-1212.54"/>
<polygon fill="black" stroke="black" points="2541.63,-1213.23 2546.81,-1222.47 2548.52,-1212.01 2541.63,-1213.23"/>
</g>
<!-- [root] provider.google (close) -->
<g id="node23" class="node"><title>[root] provider.google (close)</title>
<ellipse fill="none" stroke="black" cx="1929.26" cy="-165.469" rx="118.879" ry="18"/>
<text text-anchor="middle" x="1929.26" y="-161.769" font-family="Times New Roman,serif" font-size="14.00">[root] provider.google (close)</text>
</g>
<!-- [root] provider.google (close)&#45;&gt;[root] google_compute_instance.firstserver -->
<g id="edge28" class="edge"><title>[root] provider.google (close)&#45;&gt;[root] google_compute_instance.firstserver</title>
<path fill="none" stroke="black" d="M1883.57,-148.839C1809.89,-122.021 1664.86,-69.2346 1583.34,-39.5623"/>
<polygon fill="black" stroke="black" points="1584.31,-36.1929 1573.72,-36.0616 1581.92,-42.7708 1584.31,-36.1929"/>
</g>
<!-- [root] provider.google (close)&#45;&gt;[root] google_container_cluster.googlekubernates -->
<g id="edge29" class="edge"><title>[root] provider.google (close)&#45;&gt;[root] google_container_cluster.googlekubernates</title>
<path fill="none" stroke="black" d="M1851.71,-151.794C1703.04,-125.58 1377.45,-68.1698 1205.09,-37.7786"/>
<polygon fill="black" stroke="black" points="1205.69,-34.3294 1195.23,-36.0397 1204.47,-41.2231 1205.69,-34.3294"/>
</g>
<!-- [root] root -->
<g id="node24" class="node"><title>[root] root</title>
<ellipse fill="none" stroke="black" cx="2259.56" cy="-442.621" rx="49.2915" ry="18"/>
<text text-anchor="middle" x="2259.56" y="-438.921" font-family="Times New Roman,serif" font-size="14.00">[root] root</text>
</g>
<!-- [root] root&#45;&gt;[root] meta.count&#45;boundary (EachMode fixup) -->
<g id="edge30" class="edge"><title>[root] root&#45;&gt;[root] meta.count&#45;boundary (EachMode fixup)</title>
<path fill="none" stroke="black" d="M2262.77,-460.853C2286.98,-598.12 2440.48,-1468.66 2470.17,-1637.08"/>
<polygon fill="black" stroke="black" points="2466.73,-1637.69 2471.91,-1646.93 2473.62,-1636.47 2466.73,-1637.69"/>
</g>
<!-- [root] root&#45;&gt;[root] provider.aws (close) -->
<g id="edge31" class="edge"><title>[root] root&#45;&gt;[root] provider.aws (close)</title>
<path fill="none" stroke="black" d="M2256.34,-460.859C2224.91,-639.092 1972.91,-2068.29 1934.23,-2287.62"/>
<polygon fill="black" stroke="black" points="1930.75,-2287.23 1932.46,-2297.68 1937.64,-2288.44 1930.75,-2287.23"/>
</g>
<!-- [root] root&#45;&gt;[root] provider.azurerm (close) -->
<g id="edge32" class="edge"><title>[root] root&#45;&gt;[root] provider.azurerm (close)</title>
<path fill="none" stroke="black" d="M2269.96,-460.631C2304.81,-521 2417.66,-716.457 2459.42,-788.785"/>
<polygon fill="black" stroke="black" points="2456.57,-790.849 2464.6,-797.759 2462.63,-787.349 2456.57,-790.849"/>
</g>
<!-- [root] root&#45;&gt;[root] provider.google (close) -->
<g id="edge33" class="edge"><title>[root] root&#45;&gt;[root] provider.google (close)</title>
<path fill="none" stroke="black" d="M2239.39,-425.701C2183.11,-378.477 2024.16,-245.098 1958.35,-189.877"/>
<polygon fill="black" stroke="black" points="1960.34,-186.98 1950.43,-183.234 1955.84,-192.343 1960.34,-186.98"/>
</g>
</g>
</svg>
