<?xml version="1.0" encoding="UTF-8" standalone="no"?>
<!DOCTYPE svg PUBLIC "-//W3C//DTD SVG 1.1//EN"
 "http://www.w3.org/Graphics/SVG/1.1/DTD/svg11.dtd">
<!-- Generated by graphviz version 2.38.0 (20140413.2041)
 -->
<!-- Title: %3 Pages: 1 -->
<svg width="1687pt" height="1405pt"
 viewBox="0.00 0.00 1686.92 1405.43" xmlns="http://www.w3.org/2000/svg" xmlns:xlink="http://www.w3.org/1999/xlink">
<g id="graph0" class="graph" transform="scale(1 1) rotate(0) translate(4 1401.43)">
<title>%3</title>
<polygon fill="white" stroke="none" points="-4,4 -4,-1401.43 1682.92,-1401.43 1682.92,4 -4,4"/>
<!-- [root] aws_instance.secondserver -->
<g id="node1" class="node"><title>[root] aws_instance.secondserver</title>
<polygon fill="none" stroke="black" points="1571,-430.847 1402,-430.847 1402,-394.847 1571,-394.847 1571,-430.847"/>
<text text-anchor="middle" x="1486.5" y="-409.147" font-family="Times New Roman,serif" font-size="14.00">aws_instance.secondserver</text>
</g>
<!-- [root] aws_subnet.subnet1 -->
<g id="node3" class="node"><title>[root] aws_subnet.subnet1</title>
<polygon fill="none" stroke="black" points="1606.88,-273.949 1476.88,-273.949 1476.88,-237.949 1606.88,-237.949 1606.88,-273.949"/>
<text text-anchor="middle" x="1541.88" y="-252.249" font-family="Times New Roman,serif" font-size="14.00">aws_subnet.subnet1</text>
</g>
<!-- [root] aws_instance.secondserver&#45;&gt;[root] aws_subnet.subnet1 -->
<g id="edge1" class="edge"><title>[root] aws_instance.secondserver&#45;&gt;[root] aws_subnet.subnet1</title>
<path fill="none" stroke="black" d="M1492.97,-394.542C1502.59,-367.262 1520.78,-315.732 1532.06,-283.771"/>
<polygon fill="black" stroke="black" points="1535.44,-284.733 1535.46,-274.138 1528.83,-282.403 1535.44,-284.733"/>
</g>
<!-- [root] data.aws_ami.ubuntu -->
<g id="node8" class="node"><title>[root] data.aws_ami.ubuntu</title>
<polygon fill="none" stroke="black" points="1678.92,-163.467 1544.92,-163.467 1544.92,-127.467 1678.92,-127.467 1678.92,-163.467"/>
<text text-anchor="middle" x="1611.92" y="-141.767" font-family="Times New Roman,serif" font-size="14.00">data.aws_ami.ubuntu</text>
</g>
<!-- [root] aws_instance.secondserver&#45;&gt;[root] data.aws_ami.ubuntu -->
<g id="edge2" class="edge"><title>[root] aws_instance.secondserver&#45;&gt;[root] data.aws_ami.ubuntu</title>
<path fill="none" stroke="black" d="M1495.12,-394.469C1516.79,-348.278 1573.61,-227.142 1599.16,-172.679"/>
<polygon fill="black" stroke="black" points="1602.33,-174.16 1603.41,-163.62 1595.99,-171.188 1602.33,-174.16"/>
</g>
<!-- [root] aws_security_group.subnetsecurity -->
<g id="node2" class="node"><title>[root] aws_security_group.subnetsecurity</title>
<polygon fill="none" stroke="black" points="1371.63,-412.47 1157.63,-412.47 1157.63,-376.47 1371.63,-376.47 1371.63,-412.47"/>
<text text-anchor="middle" x="1264.63" y="-390.77" font-family="Times New Roman,serif" font-size="14.00">aws_security_group.subnetsecurity</text>
</g>
<!-- [root] aws_vpc.environment&#45;example&#45;two -->
<g id="node5" class="node"><title>[root] aws_vpc.environment&#45;example&#45;two</title>
<polygon fill="none" stroke="black" points="1500.79,-224.068 1285.79,-224.068 1285.79,-188.068 1500.79,-188.068 1500.79,-224.068"/>
<text text-anchor="middle" x="1393.29" y="-202.368" font-family="Times New Roman,serif" font-size="14.00">aws_vpc.environment&#45;example&#45;two</text>
</g>
<!-- [root] aws_security_group.subnetsecurity&#45;&gt;[root] aws_vpc.environment&#45;example&#45;two -->
<g id="edge3" class="edge"><title>[root] aws_security_group.subnetsecurity&#45;&gt;[root] aws_vpc.environment&#45;example&#45;two</title>
<path fill="none" stroke="black" d="M1276.97,-376.405C1299.73,-343.067 1348.45,-271.727 1375.05,-232.784"/>
<polygon fill="black" stroke="black" points="1378.24,-234.31 1380.99,-224.078 1372.46,-230.363 1378.24,-234.31"/>
</g>
<!-- [root] aws_subnet.subnet1&#45;&gt;[root] aws_vpc.environment&#45;example&#45;two -->
<g id="edge4" class="edge"><title>[root] aws_subnet.subnet1&#45;&gt;[root] aws_vpc.environment&#45;example&#45;two</title>
<path fill="none" stroke="black" d="M1488.24,-237.941C1478.05,-234.523 1467.31,-230.915 1456.85,-227.406"/>
<polygon fill="black" stroke="black" points="1457.95,-224.082 1447.36,-224.218 1455.72,-230.718 1457.95,-224.082"/>
</g>
<!-- [root] aws_subnet.subnet2 -->
<g id="node4" class="node"><title>[root] aws_subnet.subnet2</title>
<polygon fill="none" stroke="black" points="1422.08,-444.423 1292.08,-444.423 1292.08,-408.423 1422.08,-408.423 1422.08,-444.423"/>
<text text-anchor="middle" x="1357.08" y="-422.723" font-family="Times New Roman,serif" font-size="14.00">aws_subnet.subnet2</text>
</g>
<!-- [root] aws_subnet.subnet2&#45;&gt;[root] aws_vpc.environment&#45;example&#45;two -->
<g id="edge5" class="edge"><title>[root] aws_subnet.subnet2&#45;&gt;[root] aws_vpc.environment&#45;example&#45;two</title>
<path fill="none" stroke="black" d="M1360.04,-408.391C1366.34,-370.056 1381.11,-280.218 1388.66,-234.249"/>
<polygon fill="black" stroke="black" points="1392.12,-234.785 1390.29,-224.35 1385.21,-233.65 1392.12,-234.785"/>
</g>
<!-- [root] provider.aws -->
<g id="node13" class="node"><title>[root] provider.aws</title>
<polygon fill="none" stroke="black" points="1460.45,-36 1378.84,-18 1460.45,-0 1542.06,-18 1460.45,-36"/>
<text text-anchor="middle" x="1460.45" y="-14.3" font-family="Times New Roman,serif" font-size="14.00">provider.aws</text>
</g>
<!-- [root] aws_vpc.environment&#45;example&#45;two&#45;&gt;[root] provider.aws -->
<g id="edge6" class="edge"><title>[root] aws_vpc.environment&#45;example&#45;two&#45;&gt;[root] provider.aws</title>
<path fill="none" stroke="black" d="M1399.73,-188.036C1411.63,-154.699 1437.13,-83.2999 1451,-44.4695"/>
<polygon fill="black" stroke="black" points="1454.35,-45.485 1454.42,-34.8903 1447.76,-43.1307 1454.35,-45.485"/>
</g>
<!-- [root] azurerm_resource_group.azy_network -->
<g id="node6" class="node"><title>[root] azurerm_resource_group.azy_network</title>
<polygon fill="none" stroke="black" points="645.731,-495.089 413.731,-495.089 413.731,-459.089 645.731,-459.089 645.731,-495.089"/>
<text text-anchor="middle" x="529.731" y="-473.389" font-family="Times New Roman,serif" font-size="14.00">azurerm_resource_group.azy_network</text>
</g>
<!-- [root] provider.azurerm -->
<g id="node14" class="node"><title>[root] provider.azurerm</title>
<polygon fill="none" stroke="black" points="240.939,-453.037 138.048,-435.037 240.939,-417.037 343.83,-435.037 240.939,-453.037"/>
<text text-anchor="middle" x="240.939" y="-431.337" font-family="Times New Roman,serif" font-size="14.00">provider.azurerm</text>
</g>
<!-- [root] azurerm_resource_group.azy_network&#45;&gt;[root] provider.azurerm -->
<g id="edge7" class="edge"><title>[root] azurerm_resource_group.azy_network&#45;&gt;[root] provider.azurerm</title>
<path fill="none" stroke="black" d="M413.517,-460.166C377.311,-454.894 338.646,-449.264 307.111,-444.672"/>
<polygon fill="black" stroke="black" points="307.535,-441.197 297.135,-443.219 306.526,-448.124 307.535,-441.197"/>
</g>
<!-- [root] azurerm_virtual_network.blue_virtual_network -->
<g id="node7" class="node"><title>[root] azurerm_virtual_network.blue_virtual_network</title>
<polygon fill="none" stroke="black" points="987.423,-573.482 712.423,-573.482 712.423,-537.482 987.423,-537.482 987.423,-573.482"/>
<text text-anchor="middle" x="849.923" y="-551.782" font-family="Times New Roman,serif" font-size="14.00">azurerm_virtual_network.blue_virtual_network</text>
</g>
<!-- [root] azurerm_virtual_network.blue_virtual_network&#45;&gt;[root] azurerm_resource_group.azy_network -->
<g id="edge8" class="edge"><title>[root] azurerm_virtual_network.blue_virtual_network&#45;&gt;[root] azurerm_resource_group.azy_network</title>
<path fill="none" stroke="black" d="M776.063,-537.398C727.495,-525.508 663.836,-509.922 613.4,-497.573"/>
<polygon fill="black" stroke="black" points="614.043,-494.127 603.497,-495.149 612.378,-500.927 614.043,-494.127"/>
</g>
<!-- [root] data.aws_ami.ubuntu&#45;&gt;[root] provider.aws -->
<g id="edge9" class="edge"><title>[root] data.aws_ami.ubuntu&#45;&gt;[root] provider.aws</title>
<path fill="none" stroke="black" d="M1590.22,-127.204C1562.4,-103.797 1514.3,-63.3145 1485.12,-38.7612"/>
<polygon fill="black" stroke="black" points="1487.33,-36.0467 1477.43,-32.2857 1482.83,-41.4026 1487.33,-36.0467"/>
</g>
<!-- [root] google_compute_instance.firstserver -->
<g id="node9" class="node"><title>[root] google_compute_instance.firstserver</title>
<polygon fill="none" stroke="black" points="1191.19,-991.374 969.19,-991.374 969.19,-955.374 1191.19,-955.374 1191.19,-991.374"/>
<text text-anchor="middle" x="1080.19" y="-969.674" font-family="Times New Roman,serif" font-size="14.00">google_compute_instance.firstserver</text>
</g>
<!-- [root] google_compute_subnetwork.dev&#45;subnet -->
<g id="node11" class="node"><title>[root] google_compute_subnetwork.dev&#45;subnet</title>
<polygon fill="none" stroke="black" points="1134.02,-1261.53 886.023,-1261.53 886.023,-1225.53 1134.02,-1225.53 1134.02,-1261.53"/>
<text text-anchor="middle" x="1010.02" y="-1239.83" font-family="Times New Roman,serif" font-size="14.00">google_compute_subnetwork.dev&#45;subnet</text>
</g>
<!-- [root] google_compute_instance.firstserver&#45;&gt;[root] google_compute_subnetwork.dev&#45;subnet -->
<g id="edge10" class="edge"><title>[root] google_compute_instance.firstserver&#45;&gt;[root] google_compute_subnetwork.dev&#45;subnet</title>
<path fill="none" stroke="black" d="M1075.48,-991.52C1063.47,-1037.75 1031.66,-1160.24 1017.27,-1215.63"/>
<polygon fill="black" stroke="black" points="1013.84,-1214.91 1014.72,-1225.46 1020.62,-1216.66 1013.84,-1214.91"/>
</g>
<!-- [root] google_compute_network.my_development_network -->
<g id="node10" class="node"><title>[root] google_compute_network.my_development_network</title>
<polygon fill="none" stroke="black" points="1249.05,-1397.43 934.054,-1397.43 934.054,-1361.43 1249.05,-1361.43 1249.05,-1397.43"/>
<text text-anchor="middle" x="1091.55" y="-1375.73" font-family="Times New Roman,serif" font-size="14.00">google_compute_network.my_development_network</text>
</g>
<!-- [root] provider.google -->
<g id="node15" class="node"><title>[root] provider.google</title>
<polygon fill="none" stroke="black" points="1203.01,-1226.73 1106.49,-1208.73 1203.01,-1190.73 1299.53,-1208.73 1203.01,-1226.73"/>
<text text-anchor="middle" x="1203.01" y="-1205.03" font-family="Times New Roman,serif" font-size="14.00">provider.google</text>
</g>
<!-- [root] google_compute_network.my_development_network&#45;&gt;[root] provider.google -->
<g id="edge11" class="edge"><title>[root] google_compute_network.my_development_network&#45;&gt;[root] provider.google</title>
<path fill="none" stroke="black" d="M1103.48,-1361.16C1123.59,-1330.37 1164.24,-1268.11 1186.87,-1233.45"/>
<polygon fill="black" stroke="black" points="1189.94,-1235.14 1192.48,-1224.86 1184.08,-1231.32 1189.94,-1235.14"/>
</g>
<!-- [root] google_compute_subnetwork.dev&#45;subnet&#45;&gt;[root] google_compute_network.my_development_network -->
<g id="edge12" class="edge"><title>[root] google_compute_subnetwork.dev&#45;subnet&#45;&gt;[root] google_compute_network.my_development_network</title>
<path fill="none" stroke="black" d="M1020.85,-1261.58C1034.8,-1284.83 1059.17,-1325.45 1075.34,-1352.4"/>
<polygon fill="black" stroke="black" points="1072.54,-1354.53 1080.68,-1361.31 1078.54,-1350.93 1072.54,-1354.53"/>
</g>
<!-- [root] google_container_cluster.googlekubernates -->
<g id="node12" class="node"><title>[root] google_container_cluster.googlekubernates</title>
<polygon fill="none" stroke="black" points="1409.28,-976.912 1151.28,-976.912 1151.28,-940.912 1409.28,-940.912 1409.28,-976.912"/>
<text text-anchor="middle" x="1280.28" y="-955.212" font-family="Times New Roman,serif" font-size="14.00">google_container_cluster.googlekubernates</text>
</g>
<!-- [root] google_container_cluster.googlekubernates&#45;&gt;[root] provider.google -->
<g id="edge13" class="edge"><title>[root] google_container_cluster.googlekubernates&#45;&gt;[root] provider.google</title>
<path fill="none" stroke="black" d="M1274.6,-977.282C1261.1,-1020.93 1227.06,-1130.99 1211.28,-1182"/>
<polygon fill="black" stroke="black" points="1207.9,-1181.08 1208.29,-1191.67 1214.59,-1183.15 1207.9,-1181.08"/>
</g>
<!-- [root] var.client_id -->
<g id="node16" class="node"><title>[root] var.client_id</title>
<polygon fill="none" stroke="black" points="205.457,-522.773 126.457,-522.773 126.457,-486.773 211.457,-486.773 211.457,-516.773 205.457,-522.773"/>
<polyline fill="none" stroke="black" points="205.457,-522.773 205.457,-516.773 "/>
<polyline fill="none" stroke="black" points="211.457,-516.773 205.457,-516.773 "/>
<text text-anchor="middle" x="168.957" y="-501.073" font-family="Times New Roman,serif" font-size="14.00">var.client_id</text>
</g>
<!-- [root] provider.azurerm&#45;&gt;[root] var.client_id -->
<g id="edge24" class="edge"><title>[root] provider.azurerm&#45;&gt;[root] var.client_id</title>
<path fill="none" stroke="black" d="M224.964,-450.513C216.184,-459.019 205.075,-469.782 195.069,-479.475"/>
<polygon fill="black" stroke="black" points="192.437,-477.152 187.69,-486.624 197.308,-482.18 192.437,-477.152"/>
</g>
<!-- [root] var.client_secret -->
<g id="node17" class="node"><title>[root] var.client_secret</title>
<polygon fill="none" stroke="black" points="214.238,-300.779 113.238,-300.779 113.238,-264.779 220.238,-264.779 220.238,-294.779 214.238,-300.779"/>
<polyline fill="none" stroke="black" points="214.238,-300.779 214.238,-294.779 "/>
<polyline fill="none" stroke="black" points="220.238,-294.779 214.238,-294.779 "/>
<text text-anchor="middle" x="166.738" y="-279.079" font-family="Times New Roman,serif" font-size="14.00">var.client_secret</text>
</g>
<!-- [root] provider.azurerm&#45;&gt;[root] var.client_secret -->
<g id="edge25" class="edge"><title>[root] provider.azurerm&#45;&gt;[root] var.client_secret</title>
<path fill="none" stroke="black" d="M232.715,-418.161C219.994,-392.058 195.421,-341.635 180.118,-310.235"/>
<polygon fill="black" stroke="black" points="183.218,-308.606 175.69,-301.15 176.925,-311.672 183.218,-308.606"/>
</g>
<!-- [root] var.subscription_id -->
<g id="node18" class="node"><title>[root] var.subscription_id</title>
<polygon fill="none" stroke="black" points="197.574,-631.743 78.5736,-631.743 78.5736,-595.743 203.574,-595.743 203.574,-625.743 197.574,-631.743"/>
<polyline fill="none" stroke="black" points="197.574,-631.743 197.574,-625.743 "/>
<polyline fill="none" stroke="black" points="203.574,-625.743 197.574,-625.743 "/>
<text text-anchor="middle" x="141.074" y="-610.043" font-family="Times New Roman,serif" font-size="14.00">var.subscription_id</text>
</g>
<!-- [root] provider.azurerm&#45;&gt;[root] var.subscription_id -->
<g id="edge26" class="edge"><title>[root] provider.azurerm&#45;&gt;[root] var.subscription_id</title>
<path fill="none" stroke="black" d="M231.723,-451.528C214.452,-482.435 177.07,-549.328 156.106,-586.842"/>
<polygon fill="black" stroke="black" points="152.975,-585.27 151.152,-595.707 159.086,-588.685 152.975,-585.27"/>
</g>
<!-- [root] var.tenant_id -->
<g id="node19" class="node"><title>[root] var.tenant_id</title>
<polygon fill="none" stroke="black" points="83,-425.886 -1.42109e-014,-425.886 -1.42109e-014,-389.886 89,-389.886 89,-419.886 83,-425.886"/>
<polyline fill="none" stroke="black" points="83,-425.886 83,-419.886 "/>
<polyline fill="none" stroke="black" points="89,-419.886 83,-419.886 "/>
<text text-anchor="middle" x="44.5" y="-404.186" font-family="Times New Roman,serif" font-size="14.00">var.tenant_id</text>
</g>
<!-- [root] provider.azurerm&#45;&gt;[root] var.tenant_id -->
<g id="edge27" class="edge"><title>[root] provider.azurerm&#45;&gt;[root] var.tenant_id</title>
<path fill="none" stroke="black" d="M183.328,-427.074C156.843,-423.413 125.577,-419.092 99.4283,-415.478"/>
<polygon fill="black" stroke="black" points="99.6939,-411.982 89.3088,-414.079 98.7355,-418.916 99.6939,-411.982"/>
</g>
<!-- [root] meta.count&#45;boundary (EachMode fixup) -->
<g id="node20" class="node"><title>[root] meta.count&#45;boundary (EachMode fixup)</title>
<ellipse fill="none" stroke="black" cx="1210.57" cy="-638.212" rx="180.868" ry="18"/>
<text text-anchor="middle" x="1210.57" y="-634.512" font-family="Times New Roman,serif" font-size="14.00">[root] meta.count&#45;boundary (EachMode fixup)</text>
</g>
<!-- [root] meta.count&#45;boundary (EachMode fixup)&#45;&gt;[root] aws_instance.secondserver -->
<g id="edge14" class="edge"><title>[root] meta.count&#45;boundary (EachMode fixup)&#45;&gt;[root] aws_instance.secondserver</title>
<path fill="none" stroke="black" d="M1232.68,-620.15C1281.93,-579.931 1400.67,-482.953 1456.52,-437.339"/>
<polygon fill="black" stroke="black" points="1458.75,-440.031 1464.28,-430.995 1454.33,-434.61 1458.75,-440.031"/>
</g>
<!-- [root] meta.count&#45;boundary (EachMode fixup)&#45;&gt;[root] aws_security_group.subnetsecurity -->
<g id="edge15" class="edge"><title>[root] meta.count&#45;boundary (EachMode fixup)&#45;&gt;[root] aws_security_group.subnetsecurity</title>
<path fill="none" stroke="black" d="M1214.63,-619.892C1224.01,-577.617 1247.21,-473.02 1258.4,-422.572"/>
<polygon fill="black" stroke="black" points="1261.84,-423.191 1260.59,-412.67 1255.01,-421.675 1261.84,-423.191"/>
</g>
<!-- [root] meta.count&#45;boundary (EachMode fixup)&#45;&gt;[root] aws_subnet.subnet2 -->
<g id="edge16" class="edge"><title>[root] meta.count&#45;boundary (EachMode fixup)&#45;&gt;[root] aws_subnet.subnet2</title>
<path fill="none" stroke="black" d="M1223.06,-620.155C1248.96,-582.721 1308.59,-496.515 1338.81,-452.829"/>
<polygon fill="black" stroke="black" points="1341.81,-454.65 1344.62,-444.435 1336.05,-450.667 1341.81,-454.65"/>
</g>
<!-- [root] meta.count&#45;boundary (EachMode fixup)&#45;&gt;[root] azurerm_virtual_network.blue_virtual_network -->
<g id="edge17" class="edge"><title>[root] meta.count&#45;boundary (EachMode fixup)&#45;&gt;[root] azurerm_virtual_network.blue_virtual_network</title>
<path fill="none" stroke="black" d="M1138.45,-621.669C1080.91,-608.47 1000.05,-589.92 938.562,-575.815"/>
<polygon fill="black" stroke="black" points="939.01,-572.327 928.481,-573.503 937.445,-579.15 939.01,-572.327"/>
</g>
<!-- [root] meta.count&#45;boundary (EachMode fixup)&#45;&gt;[root] google_compute_instance.firstserver -->
<g id="edge18" class="edge"><title>[root] meta.count&#45;boundary (EachMode fixup)&#45;&gt;[root] google_compute_instance.firstserver</title>
<path fill="none" stroke="black" d="M1203.56,-656.232C1182.03,-711.585 1116.74,-879.416 1090.89,-945.863"/>
<polygon fill="black" stroke="black" points="1087.6,-944.677 1087.23,-955.265 1094.12,-947.215 1087.6,-944.677"/>
</g>
<!-- [root] meta.count&#45;boundary (EachMode fixup)&#45;&gt;[root] google_container_cluster.googlekubernates -->
<g id="edge19" class="edge"><title>[root] meta.count&#45;boundary (EachMode fixup)&#45;&gt;[root] google_container_cluster.googlekubernates</title>
<path fill="none" stroke="black" d="M1214.52,-656.373C1226.11,-709.718 1260.13,-866.225 1274.15,-930.678"/>
<polygon fill="black" stroke="black" points="1270.75,-931.525 1276.29,-940.553 1277.59,-930.038 1270.75,-931.525"/>
</g>
<!-- [root] provider.aws (close) -->
<g id="node21" class="node"><title>[root] provider.aws (close)</title>
<ellipse fill="none" stroke="black" cx="1357.73" cy="-551.326" rx="108.581" ry="18"/>
<text text-anchor="middle" x="1357.73" y="-547.626" font-family="Times New Roman,serif" font-size="14.00">[root] provider.aws (close)</text>
</g>
<!-- [root] provider.aws (close)&#45;&gt;[root] aws_instance.secondserver -->
<g id="edge20" class="edge"><title>[root] provider.aws (close)&#45;&gt;[root] aws_instance.secondserver</title>
<path fill="none" stroke="black" d="M1374.3,-533.505C1396.78,-509.334 1437.07,-466.011 1462.76,-438.385"/>
<polygon fill="black" stroke="black" points="1465.34,-440.745 1469.59,-431.039 1460.21,-435.978 1465.34,-440.745"/>
</g>
<!-- [root] provider.aws (close)&#45;&gt;[root] aws_security_group.subnetsecurity -->
<g id="edge21" class="edge"><title>[root] provider.aws (close)&#45;&gt;[root] aws_security_group.subnetsecurity</title>
<path fill="none" stroke="black" d="M1347.05,-533.332C1330.79,-505.94 1299.72,-453.592 1280.72,-421.579"/>
<polygon fill="black" stroke="black" points="1283.59,-419.549 1275.47,-412.736 1277.57,-423.122 1283.59,-419.549"/>
</g>
<!-- [root] provider.aws (close)&#45;&gt;[root] aws_subnet.subnet2 -->
<g id="edge22" class="edge"><title>[root] provider.aws (close)&#45;&gt;[root] aws_subnet.subnet2</title>
<path fill="none" stroke="black" d="M1357.63,-533.164C1357.53,-512.628 1357.35,-478.93 1357.23,-454.89"/>
<polygon fill="black" stroke="black" points="1360.73,-454.589 1357.17,-444.607 1353.73,-454.625 1360.73,-454.589"/>
</g>
<!-- [root] provider.azurerm (close) -->
<g id="node22" class="node"><title>[root] provider.azurerm (close)</title>
<ellipse fill="none" stroke="black" cx="935.145" cy="-685.159" rx="123.478" ry="18"/>
<text text-anchor="middle" x="935.145" y="-681.459" font-family="Times New Roman,serif" font-size="14.00">[root] provider.azurerm (close)</text>
</g>
<!-- [root] provider.azurerm (close)&#45;&gt;[root] azurerm_virtual_network.blue_virtual_network -->
<g id="edge23" class="edge"><title>[root] provider.azurerm (close)&#45;&gt;[root] azurerm_virtual_network.blue_virtual_network</title>
<path fill="none" stroke="black" d="M923.295,-667.128C908.812,-645.09 884.178,-607.605 867.489,-582.211"/>
<polygon fill="black" stroke="black" points="870.364,-580.212 861.947,-573.778 864.514,-584.057 870.364,-580.212"/>
</g>
<!-- [root] provider.google (close) -->
<g id="node23" class="node"><title>[root] provider.google (close)</title>
<ellipse fill="none" stroke="black" cx="1170.07" cy="-914.647" rx="118.879" ry="18"/>
<text text-anchor="middle" x="1170.07" y="-910.947" font-family="Times New Roman,serif" font-size="14.00">[root] provider.google (close)</text>
</g>
<!-- [root] provider.google (close)&#45;&gt;[root] google_compute_instance.firstserver -->
<g id="edge28" class="edge"><title>[root] provider.google (close)&#45;&gt;[root] google_compute_instance.firstserver</title>
<path fill="none" stroke="black" d="M1143.11,-932.267C1134.64,-937.798 1125.16,-943.994 1116.17,-949.864"/>
<polygon fill="black" stroke="black" points="1114.22,-946.96 1107.76,-955.36 1118.05,-952.821 1114.22,-946.96"/>
</g>
<!-- [root] provider.google (close)&#45;&gt;[root] google_container_cluster.googlekubernates -->
<g id="edge29" class="edge"><title>[root] provider.google (close)&#45;&gt;[root] google_container_cluster.googlekubernates</title>
<path fill="none" stroke="black" d="M1212.05,-931.508C1216.53,-933.307 1221.13,-935.155 1225.73,-937.002"/>
<polygon fill="black" stroke="black" points="1224.53,-940.292 1235.12,-940.772 1227.14,-933.797 1224.53,-940.292"/>
</g>
<!-- [root] root -->
<g id="node24" class="node"><title>[root] root</title>
<ellipse fill="none" stroke="black" cx="1158.63" cy="-721.766" rx="49.2915" ry="18"/>
<text text-anchor="middle" x="1158.63" y="-718.066" font-family="Times New Roman,serif" font-size="14.00">[root] root</text>
</g>
<!-- [root] root&#45;&gt;[root] meta.count&#45;boundary (EachMode fixup) -->
<g id="edge30" class="edge"><title>[root] root&#45;&gt;[root] meta.count&#45;boundary (EachMode fixup)</title>
<path fill="none" stroke="black" d="M1169.65,-704.046C1176.69,-692.713 1185.96,-677.797 1193.9,-665.03"/>
<polygon fill="black" stroke="black" points="1197.08,-666.535 1199.39,-656.194 1191.14,-662.839 1197.08,-666.535"/>
</g>
<!-- [root] root&#45;&gt;[root] provider.aws (close) -->
<g id="edge31" class="edge"><title>[root] root&#45;&gt;[root] provider.aws (close)</title>
<path fill="none" stroke="black" d="M1178.09,-705.113C1213.4,-674.879 1288.2,-610.846 1329.26,-575.692"/>
<polygon fill="black" stroke="black" points="1331.68,-578.227 1337.01,-569.065 1327.13,-572.91 1331.68,-578.227"/>
</g>
<!-- [root] root&#45;&gt;[root] provider.azurerm (close) -->
<g id="edge32" class="edge"><title>[root] root&#45;&gt;[root] provider.azurerm (close)</title>
<path fill="none" stroke="black" d="M1113.41,-714.358C1088.66,-710.303 1057.06,-705.128 1027.36,-700.263"/>
<polygon fill="black" stroke="black" points="1027.81,-696.79 1017.37,-698.627 1026.68,-703.698 1027.81,-696.79"/>
</g>
<!-- [root] root&#45;&gt;[root] provider.google (close) -->
<g id="edge33" class="edge"><title>[root] root&#45;&gt;[root] provider.google (close)</title>
<path fill="none" stroke="black" d="M1159.71,-739.911C1161.71,-773.586 1166,-845.972 1168.39,-886.208"/>
<polygon fill="black" stroke="black" points="1164.91,-886.634 1168.99,-896.409 1171.89,-886.22 1164.91,-886.634"/>
</g>
</g>
</svg>
