<?xml version="1.0" encoding="UTF-8" standalone="no"?>
<!DOCTYPE svg PUBLIC "-//W3C//DTD SVG 1.1//EN"
 "http://www.w3.org/Graphics/SVG/1.1/DTD/svg11.dtd">
<!-- Generated by graphviz version 2.38.0 (20140413.2041)
 -->
<!-- Title: %3 Pages: 1 -->
<svg width="980pt" height="816pt"
 viewBox="0.00 0.00 980.04 816.16" xmlns="http://www.w3.org/2000/svg" xmlns:xlink="http://www.w3.org/1999/xlink">
<g id="graph0" class="graph" transform="scale(1 1) rotate(0) translate(4 812.159)">
<title>%3</title>
<polygon fill="white" stroke="none" points="-4,4 -4,-812.159 976.039,-812.159 976.039,4 -4,4"/>
<!-- [root] aws_instance.secondserver -->
<g id="node1" class="node"><title>[root] aws_instance.secondserver</title>
<polygon fill="none" stroke="black" points="857.571,-641.763 688.571,-641.763 688.571,-605.763 857.571,-605.763 857.571,-641.763"/>
<text text-anchor="middle" x="773.071" y="-620.063" font-family="Times New Roman,serif" font-size="14.00">aws_instance.secondserver</text>
</g>
<!-- [root] aws_subnet.subnet1 -->
<g id="node3" class="node"><title>[root] aws_subnet.subnet1</title>
<polygon fill="none" stroke="black" points="972.039,-536.938 842.039,-536.938 842.039,-500.938 972.039,-500.938 972.039,-536.938"/>
<text text-anchor="middle" x="907.039" y="-515.238" font-family="Times New Roman,serif" font-size="14.00">aws_subnet.subnet1</text>
</g>
<!-- [root] aws_instance.secondserver&#45;&gt;[root] aws_subnet.subnet1 -->
<g id="edge1" class="edge"><title>[root] aws_instance.secondserver&#45;&gt;[root] aws_subnet.subnet1</title>
<path fill="none" stroke="black" d="M796.101,-605.743C818.147,-588.493 851.566,-562.344 875.963,-543.254"/>
<polygon fill="black" stroke="black" points="878.143,-545.992 883.861,-537.073 873.829,-540.479 878.143,-545.992"/>
</g>
<!-- [root] data.aws_ami.ubuntu -->
<g id="node8" class="node"><title>[root] data.aws_ami.ubuntu</title>
<polygon fill="none" stroke="black" points="893.964,-689.508 759.964,-689.508 759.964,-653.508 893.964,-653.508 893.964,-689.508"/>
<text text-anchor="middle" x="826.964" y="-667.808" font-family="Times New Roman,serif" font-size="14.00">data.aws_ami.ubuntu</text>
</g>
<!-- [root] aws_instance.secondserver&#45;&gt;[root] data.aws_ami.ubuntu -->
<g id="edge2" class="edge"><title>[root] aws_instance.secondserver&#45;&gt;[root] data.aws_ami.ubuntu</title>
<path fill="none" stroke="black" d="M793.446,-641.813C795.189,-643.358 796.972,-644.938 798.762,-646.524"/>
<polygon fill="black" stroke="black" points="796.754,-649.421 806.561,-653.432 801.396,-644.181 796.754,-649.421"/>
</g>
<!-- [root] aws_security_group.subnetsecurity -->
<g id="node2" class="node"><title>[root] aws_security_group.subnetsecurity</title>
<polygon fill="none" stroke="black" points="629.785,-736.684 415.785,-736.684 415.785,-700.684 629.785,-700.684 629.785,-736.684"/>
<text text-anchor="middle" x="522.785" y="-714.984" font-family="Times New Roman,serif" font-size="14.00">aws_security_group.subnetsecurity</text>
</g>
<!-- [root] aws_vpc.environment&#45;example&#45;two -->
<g id="node5" class="node"><title>[root] aws_vpc.environment&#45;example&#45;two</title>
<polygon fill="none" stroke="black" points="621.607,-808.159 406.607,-808.159 406.607,-772.159 621.607,-772.159 621.607,-808.159"/>
<text text-anchor="middle" x="514.107" y="-786.459" font-family="Times New Roman,serif" font-size="14.00">aws_vpc.environment&#45;example&#45;two</text>
</g>
<!-- [root] aws_security_group.subnetsecurity&#45;&gt;[root] aws_vpc.environment&#45;example&#45;two -->
<g id="edge3" class="edge"><title>[root] aws_security_group.subnetsecurity&#45;&gt;[root] aws_vpc.environment&#45;example&#45;two</title>
<path fill="none" stroke="black" d="M520.595,-736.72C519.667,-744.364 518.564,-753.454 517.532,-761.95"/>
<polygon fill="black" stroke="black" points="514.057,-761.531 516.326,-771.88 521.006,-762.375 514.057,-761.531"/>
</g>
<!-- [root] aws_subnet.subnet1&#45;&gt;[root] aws_vpc.environment&#45;example&#45;two -->
<g id="edge4" class="edge"><title>[root] aws_subnet.subnet1&#45;&gt;[root] aws_vpc.environment&#45;example&#45;two</title>
<path fill="none" stroke="black" d="M880.953,-536.943C812.295,-584.335 626.53,-712.559 548.919,-766.13"/>
<polygon fill="black" stroke="black" points="546.682,-763.421 540.441,-771.982 550.659,-769.182 546.682,-763.421"/>
</g>
<!-- [root] aws_subnet.subnet2 -->
<g id="node4" class="node"><title>[root] aws_subnet.subnet2</title>
<polygon fill="none" stroke="black" points="458.897,-687.803 328.897,-687.803 328.897,-651.803 458.897,-651.803 458.897,-687.803"/>
<text text-anchor="middle" x="393.897" y="-666.103" font-family="Times New Roman,serif" font-size="14.00">aws_subnet.subnet2</text>
</g>
<!-- [root] aws_subnet.subnet2&#45;&gt;[root] aws_vpc.environment&#45;example&#45;two -->
<g id="edge5" class="edge"><title>[root] aws_subnet.subnet2&#45;&gt;[root] aws_vpc.environment&#45;example&#45;two</title>
<path fill="none" stroke="black" d="M411.894,-687.822C432.343,-708.295 465.86,-741.853 488.903,-764.925"/>
<polygon fill="black" stroke="black" points="486.444,-767.415 495.987,-772.017 491.397,-762.469 486.444,-767.415"/>
</g>
<!-- [root] provider.aws -->
<g id="node13" class="node"><title>[root] provider.aws</title>
<polygon fill="none" stroke="black" points="880.857,-737.253 799.246,-719.253 880.857,-701.253 962.467,-719.253 880.857,-737.253"/>
<text text-anchor="middle" x="880.857" y="-715.553" font-family="Times New Roman,serif" font-size="14.00">provider.aws</text>
</g>
<!-- [root] aws_vpc.environment&#45;example&#45;two&#45;&gt;[root] provider.aws -->
<g id="edge6" class="edge"><title>[root] aws_vpc.environment&#45;example&#45;two&#45;&gt;[root] provider.aws</title>
<path fill="none" stroke="black" d="M607.602,-772.083C677.073,-758.652 769.409,-740.8 826.975,-729.67"/>
<polygon fill="black" stroke="black" points="827.802,-733.075 836.955,-727.741 826.473,-726.203 827.802,-733.075"/>
</g>
<!-- [root] azurerm_resource_group.azy_network -->
<g id="node6" class="node"><title>[root] azurerm_resource_group.azy_network</title>
<polygon fill="none" stroke="black" points="323.961,-364.63 91.9609,-364.63 91.9609,-328.63 323.961,-328.63 323.961,-364.63"/>
<text text-anchor="middle" x="207.961" y="-342.93" font-family="Times New Roman,serif" font-size="14.00">azurerm_resource_group.azy_network</text>
</g>
<!-- [root] provider.azurerm -->
<g id="node14" class="node"><title>[root] provider.azurerm</title>
<polygon fill="none" stroke="black" points="138.053,-347.4 35.1619,-329.4 138.053,-311.4 240.944,-329.4 138.053,-347.4"/>
<text text-anchor="middle" x="138.053" y="-325.7" font-family="Times New Roman,serif" font-size="14.00">provider.azurerm</text>
</g>
<!-- [root] azurerm_resource_group.azy_network&#45;&gt;[root] provider.azurerm -->
<g id="edge7" class="edge"><title>[root] azurerm_resource_group.azy_network&#45;&gt;[root] provider.azurerm</title>
<path fill="none" stroke="black" d="M138.104,-329.412C138.095,-329.41 138.088,-329.408 138.082,-329.407"/>
<polygon fill="black" stroke="black" points="148.631,-328.443 138.066,-329.403 146.923,-335.241 148.631,-328.443"/>
</g>
<!-- [root] azurerm_virtual_network.blue_virtual_network -->
<g id="node7" class="node"><title>[root] azurerm_virtual_network.blue_virtual_network</title>
<polygon fill="none" stroke="black" points="439.989,-316.944 164.989,-316.944 164.989,-280.944 439.989,-280.944 439.989,-316.944"/>
<text text-anchor="middle" x="302.489" y="-295.244" font-family="Times New Roman,serif" font-size="14.00">azurerm_virtual_network.blue_virtual_network</text>
</g>
<!-- [root] azurerm_virtual_network.blue_virtual_network&#45;&gt;[root] azurerm_resource_group.azy_network -->
<g id="edge8" class="edge"><title>[root] azurerm_virtual_network.blue_virtual_network&#45;&gt;[root] azurerm_resource_group.azy_network</title>
<path fill="none" stroke="black" d="M266.752,-316.972C262.164,-319.286 257.422,-321.679 252.713,-324.054"/>
<polygon fill="black" stroke="black" points="251.1,-320.947 243.748,-328.576 254.253,-327.197 251.1,-320.947"/>
</g>
<!-- [root] data.aws_ami.ubuntu&#45;&gt;[root] provider.aws -->
<g id="edge9" class="edge"><title>[root] data.aws_ami.ubuntu&#45;&gt;[root] provider.aws</title>
<path fill="none" stroke="black" d="M847.338,-689.558C850.403,-692.273 853.588,-695.095 856.722,-697.872"/>
<polygon fill="black" stroke="black" points="854.503,-700.582 864.309,-704.593 859.145,-695.342 854.503,-700.582"/>
</g>
<!-- [root] google_compute_instance.firstserver -->
<g id="node9" class="node"><title>[root] google_compute_instance.firstserver</title>
<polygon fill="none" stroke="black" points="808.316,-416.322 586.316,-416.322 586.316,-380.322 808.316,-380.322 808.316,-416.322"/>
<text text-anchor="middle" x="697.316" y="-394.622" font-family="Times New Roman,serif" font-size="14.00">google_compute_instance.firstserver</text>
</g>
<!-- [root] google_compute_subnetwork.dev&#45;subnet -->
<g id="node11" class="node"><title>[root] google_compute_subnetwork.dev&#45;subnet</title>
<polygon fill="none" stroke="black" points="751.408,-433.553 503.408,-433.553 503.408,-397.553 751.408,-397.553 751.408,-433.553"/>
<text text-anchor="middle" x="627.408" y="-411.853" font-family="Times New Roman,serif" font-size="14.00">google_compute_subnetwork.dev&#45;subnet</text>
</g>
<!-- [root] google_compute_instance.firstserver&#45;&gt;[root] google_compute_subnetwork.dev&#45;subnet -->
<g id="edge10" class="edge"><title>[root] google_compute_instance.firstserver&#45;&gt;[root] google_compute_subnetwork.dev&#45;subnet</title>
<path fill="none" stroke="black" d="M627.458,-415.541C627.45,-415.543 627.443,-415.545 627.436,-415.546"/>
<polygon fill="black" stroke="black" points="636.278,-409.712 627.421,-415.55 637.986,-416.509 636.278,-409.712"/>
</g>
<!-- [root] google_compute_network.my_development_network -->
<g id="node10" class="node"><title>[root] google_compute_network.my_development_network</title>
<polygon fill="none" stroke="black" points="715,-450.784 400,-450.784 400,-414.784 715,-414.784 715,-450.784"/>
<text text-anchor="middle" x="557.5" y="-429.084" font-family="Times New Roman,serif" font-size="14.00">google_compute_network.my_development_network</text>
</g>
<!-- [root] provider.google -->
<g id="node15" class="node"><title>[root] provider.google</title>
<polygon fill="none" stroke="black" points="487.592,-468.015 391.069,-450.015 487.592,-432.015 584.115,-450.015 487.592,-468.015"/>
<text text-anchor="middle" x="487.592" y="-446.315" font-family="Times New Roman,serif" font-size="14.00">provider.google</text>
</g>
<!-- [root] google_compute_network.my_development_network&#45;&gt;[root] provider.google -->
<g id="edge11" class="edge"><title>[root] google_compute_network.my_development_network&#45;&gt;[root] provider.google</title>
<path fill="none" stroke="black" d="M487.643,-450.002C487.634,-450.004 487.627,-450.006 487.621,-450.008"/>
<polygon fill="black" stroke="black" points="496.462,-444.173 487.605,-450.011 498.17,-450.971 496.462,-444.173"/>
</g>
<!-- [root] google_compute_subnetwork.dev&#45;subnet&#45;&gt;[root] google_compute_network.my_development_network -->
<g id="edge12" class="edge"><title>[root] google_compute_subnetwork.dev&#45;subnet&#45;&gt;[root] google_compute_network.my_development_network</title>
<path fill="none" stroke="black" d="M557.551,-432.771C557.542,-432.773 557.535,-432.775 557.529,-432.777"/>
<polygon fill="black" stroke="black" points="566.37,-426.942 557.513,-432.781 568.078,-433.74 566.37,-426.942"/>
</g>
<!-- [root] google_container_cluster.googlekubernates -->
<g id="node12" class="node"><title>[root] google_container_cluster.googlekubernates</title>
<polygon fill="none" stroke="black" points="546.684,-485.245 288.684,-485.245 288.684,-449.245 546.684,-449.245 546.684,-485.245"/>
<text text-anchor="middle" x="417.684" y="-463.545" font-family="Times New Roman,serif" font-size="14.00">google_container_cluster.googlekubernates</text>
</g>
<!-- [root] google_container_cluster.googlekubernates&#45;&gt;[root] provider.google -->
<g id="edge13" class="edge"><title>[root] google_container_cluster.googlekubernates&#45;&gt;[root] provider.google</title>
<path fill="none" stroke="black" d="M487.542,-450.027C487.55,-450.025 487.557,-450.023 487.564,-450.022"/>
<polygon fill="black" stroke="black" points="478.722,-455.856 487.579,-450.018 477.014,-449.058 478.722,-455.856"/>
</g>
<!-- [root] var.client_id -->
<g id="node16" class="node"><title>[root] var.client_id</title>
<polygon fill="none" stroke="black" points="147.73,-685.004 68.7302,-685.004 68.7302,-649.004 153.73,-649.004 153.73,-679.004 147.73,-685.004"/>
<polyline fill="none" stroke="black" points="147.73,-685.004 147.73,-679.004 "/>
<polyline fill="none" stroke="black" points="153.73,-679.004 147.73,-679.004 "/>
<text text-anchor="middle" x="111.23" y="-663.304" font-family="Times New Roman,serif" font-size="14.00">var.client_id</text>
</g>
<!-- [root] provider.azurerm&#45;&gt;[root] var.client_id -->
<g id="edge24" class="edge"><title>[root] provider.azurerm&#45;&gt;[root] var.client_id</title>
<path fill="none" stroke="black" d="M136.611,-347.551C132.199,-403.079 118.86,-570.975 113.498,-638.463"/>
<polygon fill="black" stroke="black" points="109.983,-638.518 112.679,-648.763 116.961,-639.072 109.983,-638.518"/>
</g>
<!-- [root] var.client_secret -->
<g id="node17" class="node"><title>[root] var.client_secret</title>
<polygon fill="none" stroke="black" points="101,-450.784 -1.42109e-014,-450.784 -1.42109e-014,-414.784 107,-414.784 107,-444.784 101,-450.784"/>
<polyline fill="none" stroke="black" points="101,-450.784 101,-444.784 "/>
<polyline fill="none" stroke="black" points="107,-444.784 101,-444.784 "/>
<text text-anchor="middle" x="53.5" y="-429.084" font-family="Times New Roman,serif" font-size="14.00">var.client_secret</text>
</g>
<!-- [root] provider.azurerm&#45;&gt;[root] var.client_secret -->
<g id="edge25" class="edge"><title>[root] provider.azurerm&#45;&gt;[root] var.client_secret</title>
<path fill="none" stroke="black" d="M124.842,-345.553C111.43,-361.952 90.4553,-387.598 74.7136,-406.846"/>
<polygon fill="black" stroke="black" points="71.9464,-404.701 68.3248,-414.657 77.365,-409.132 71.9464,-404.701"/>
</g>
<!-- [root] var.subscription_id -->
<g id="node18" class="node"><title>[root] var.subscription_id</title>
<polygon fill="none" stroke="black" points="167.73,-216.563 48.7302,-216.563 48.7302,-180.563 173.73,-180.563 173.73,-210.563 167.73,-216.563"/>
<polyline fill="none" stroke="black" points="167.73,-216.563 167.73,-210.563 "/>
<polyline fill="none" stroke="black" points="173.73,-210.563 167.73,-210.563 "/>
<text text-anchor="middle" x="111.23" y="-194.863" font-family="Times New Roman,serif" font-size="14.00">var.subscription_id</text>
</g>
<!-- [root] provider.azurerm&#45;&gt;[root] var.subscription_id -->
<g id="edge26" class="edge"><title>[root] provider.azurerm&#45;&gt;[root] var.subscription_id</title>
<path fill="none" stroke="black" d="M134.436,-311.754C129.961,-289.93 122.289,-252.507 116.999,-226.702"/>
<polygon fill="black" stroke="black" points="120.4,-225.862 114.962,-216.768 113.542,-227.268 120.4,-225.862"/>
</g>
<!-- [root] var.tenant_id -->
<g id="node19" class="node"><title>[root] var.tenant_id</title>
<polygon fill="none" stroke="black" points="309.695,-36 226.695,-36 226.695,-0 315.695,-0 315.695,-30 309.695,-36"/>
<polyline fill="none" stroke="black" points="309.695,-36 309.695,-30 "/>
<polyline fill="none" stroke="black" points="315.695,-30 309.695,-30 "/>
<text text-anchor="middle" x="271.195" y="-14.3" font-family="Times New Roman,serif" font-size="14.00">var.tenant_id</text>
</g>
<!-- [root] provider.azurerm&#45;&gt;[root] var.tenant_id -->
<g id="edge27" class="edge"><title>[root] provider.azurerm&#45;&gt;[root] var.tenant_id</title>
<path fill="none" stroke="black" d="M145.401,-312.214C167.342,-260.898 232.518,-108.461 259.4,-45.5879"/>
<polygon fill="black" stroke="black" points="262.66,-46.8662 263.373,-36.2954 256.223,-44.1142 262.66,-46.8662"/>
</g>
<!-- [root] meta.count&#45;boundary (EachMode fixup) -->
<g id="node20" class="node"><title>[root] meta.count&#45;boundary (EachMode fixup)</title>
<ellipse fill="none" stroke="black" cx="366.241" cy="-533.164" rx="180.868" ry="18"/>
<text text-anchor="middle" x="366.241" y="-529.464" font-family="Times New Roman,serif" font-size="14.00">[root] meta.count&#45;boundary (EachMode fixup)</text>
</g>
<!-- [root] meta.count&#45;boundary (EachMode fixup)&#45;&gt;[root] aws_instance.secondserver -->
<g id="edge14" class="edge"><title>[root] meta.count&#45;boundary (EachMode fixup)&#45;&gt;[root] aws_instance.secondserver</title>
<path fill="none" stroke="black" d="M440.387,-549.676C508.353,-564.812 609.194,-587.269 682.027,-603.488"/>
<polygon fill="black" stroke="black" points="681.59,-606.976 692.112,-605.734 683.112,-600.144 681.59,-606.976"/>
</g>
<!-- [root] meta.count&#45;boundary (EachMode fixup)&#45;&gt;[root] aws_security_group.subnetsecurity -->
<g id="edge15" class="edge"><title>[root] meta.count&#45;boundary (EachMode fixup)&#45;&gt;[root] aws_security_group.subnetsecurity</title>
<path fill="none" stroke="black" d="M381.537,-551.29C409.36,-584.264 468.35,-654.172 500.596,-692.387"/>
<polygon fill="black" stroke="black" points="498.304,-695.099 507.428,-700.484 503.654,-690.584 498.304,-695.099"/>
</g>
<!-- [root] meta.count&#45;boundary (EachMode fixup)&#45;&gt;[root] aws_subnet.subnet2 -->
<g id="edge16" class="edge"><title>[root] meta.count&#45;boundary (EachMode fixup)&#45;&gt;[root] aws_subnet.subnet2</title>
<path fill="none" stroke="black" d="M369.914,-551.309C374.584,-574.38 382.697,-614.466 388.18,-641.554"/>
<polygon fill="black" stroke="black" points="384.795,-642.477 390.21,-651.584 391.656,-641.088 384.795,-642.477"/>
</g>
<!-- [root] meta.count&#45;boundary (EachMode fixup)&#45;&gt;[root] azurerm_virtual_network.blue_virtual_network -->
<g id="edge17" class="edge"><title>[root] meta.count&#45;boundary (EachMode fixup)&#45;&gt;[root] azurerm_virtual_network.blue_virtual_network</title>
<path fill="none" stroke="black" d="M361.239,-514.785C350.136,-473.994 323.374,-375.673 310.149,-327.087"/>
<polygon fill="black" stroke="black" points="313.472,-325.967 307.468,-317.237 306.717,-327.805 313.472,-325.967"/>
</g>
<!-- [root] meta.count&#45;boundary (EachMode fixup)&#45;&gt;[root] google_compute_instance.firstserver -->
<g id="edge18" class="edge"><title>[root] meta.count&#45;boundary (EachMode fixup)&#45;&gt;[root] google_compute_instance.firstserver</title>
<path fill="none" stroke="black" d="M409.184,-515.674C469.218,-491.223 578.193,-446.839 643.549,-420.221"/>
<polygon fill="black" stroke="black" points="644.923,-423.44 652.864,-416.427 642.283,-416.957 644.923,-423.44"/>
</g>
<!-- [root] meta.count&#45;boundary (EachMode fixup)&#45;&gt;[root] google_container_cluster.googlekubernates -->
<g id="edge19" class="edge"><title>[root] meta.count&#45;boundary (EachMode fixup)&#45;&gt;[root] google_container_cluster.googlekubernates</title>
<path fill="none" stroke="black" d="M380.298,-515.151C385.43,-508.576 391.348,-500.993 396.939,-493.828"/>
<polygon fill="black" stroke="black" points="399.893,-495.732 403.286,-485.695 394.375,-491.425 399.893,-495.732"/>
</g>
<!-- [root] provider.aws (close) -->
<g id="node21" class="node"><title>[root] provider.aws (close)</title>
<ellipse fill="none" stroke="black" cx="685.158" cy="-769.39" rx="108.581" ry="18"/>
<text text-anchor="middle" x="685.158" y="-765.69" font-family="Times New Roman,serif" font-size="14.00">[root] provider.aws (close)</text>
</g>
<!-- [root] provider.aws (close)&#45;&gt;[root] aws_instance.secondserver -->
<g id="edge20" class="edge"><title>[root] provider.aws (close)&#45;&gt;[root] aws_instance.secondserver</title>
<path fill="none" stroke="black" d="M696.114,-751.24C711.316,-726.06 738.926,-680.324 756.611,-651.028"/>
<polygon fill="black" stroke="black" points="759.805,-652.511 761.976,-642.141 753.812,-648.893 759.805,-652.511"/>
</g>
<!-- [root] provider.aws (close)&#45;&gt;[root] aws_security_group.subnetsecurity -->
<g id="edge21" class="edge"><title>[root] provider.aws (close)&#45;&gt;[root] aws_security_group.subnetsecurity</title>
<path fill="none" stroke="black" d="M634.228,-753.485C620.266,-749.125 604.911,-744.33 590.181,-739.73"/>
<polygon fill="black" stroke="black" points="591.2,-736.382 580.611,-736.742 589.114,-743.064 591.2,-736.382"/>
</g>
<!-- [root] provider.aws (close)&#45;&gt;[root] aws_subnet.subnet2 -->
<g id="edge22" class="edge"><title>[root] provider.aws (close)&#45;&gt;[root] aws_subnet.subnet2</title>
<path fill="none" stroke="black" d="M637.714,-753.168C588.292,-736.27 510.633,-709.717 456.275,-691.131"/>
<polygon fill="black" stroke="black" points="457.341,-687.797 446.747,-687.873 455.076,-694.42 457.341,-687.797"/>
</g>
<!-- [root] provider.azurerm (close) -->
<g id="node22" class="node"><title>[root] provider.azurerm (close)</title>
<ellipse fill="none" stroke="black" cx="514.107" cy="-75.4087" rx="123.478" ry="18"/>
<text text-anchor="middle" x="514.107" y="-71.7087" font-family="Times New Roman,serif" font-size="14.00">[root] provider.azurerm (close)</text>
</g>
<!-- [root] provider.azurerm (close)&#45;&gt;[root] azurerm_virtual_network.blue_virtual_network -->
<g id="edge23" class="edge"><title>[root] provider.azurerm (close)&#45;&gt;[root] azurerm_virtual_network.blue_virtual_network</title>
<path fill="none" stroke="black" d="M497.147,-93.3236C459.69,-132.89 369.808,-227.834 326.55,-273.528"/>
<polygon fill="black" stroke="black" points="323.862,-271.275 319.529,-280.943 328.946,-276.088 323.862,-271.275"/>
</g>
<!-- [root] provider.google (close) -->
<g id="node23" class="node"><title>[root] provider.google (close)</title>
<ellipse fill="none" stroke="black" cx="719.178" cy="-289.549" rx="118.879" ry="18"/>
<text text-anchor="middle" x="719.178" y="-285.849" font-family="Times New Roman,serif" font-size="14.00">[root] provider.google (close)</text>
</g>
<!-- [root] provider.google (close)&#45;&gt;[root] google_compute_instance.firstserver -->
<g id="edge28" class="edge"><title>[root] provider.google (close)&#45;&gt;[root] google_compute_instance.firstserver</title>
<path fill="none" stroke="black" d="M715.47,-308.001C712.041,-325.059 706.897,-350.653 702.959,-370.245"/>
<polygon fill="black" stroke="black" points="699.509,-369.649 700.97,-380.143 706.372,-371.029 699.509,-369.649"/>
</g>
<!-- [root] provider.google (close)&#45;&gt;[root] google_container_cluster.googlekubernates -->
<g id="edge29" class="edge"><title>[root] provider.google (close)&#45;&gt;[root] google_container_cluster.googlekubernates</title>
<path fill="none" stroke="black" d="M689.445,-307.074C634.789,-339.287 518.361,-407.908 457.156,-443.981"/>
<polygon fill="black" stroke="black" points="455.378,-440.966 448.54,-449.059 458.933,-446.997 455.378,-440.966"/>
</g>
<!-- [root] root -->
<g id="node24" class="node"><title>[root] root</title>
<ellipse fill="none" stroke="black" cx="659.626" cy="-163.499" rx="49.2915" ry="18"/>
<text text-anchor="middle" x="659.626" y="-159.799" font-family="Times New Roman,serif" font-size="14.00">[root] root</text>
</g>
<!-- [root] root&#45;&gt;[root] meta.count&#45;boundary (EachMode fixup) -->
<g id="edge30" class="edge"><title>[root] root&#45;&gt;[root] meta.count&#45;boundary (EachMode fixup)</title>
<path fill="none" stroke="black" d="M645.869,-180.833C598.732,-240.226 443.534,-435.775 387.041,-506.956"/>
<polygon fill="black" stroke="black" points="384.13,-504.994 380.655,-515.003 389.613,-509.346 384.13,-504.994"/>
</g>
<!-- [root] root&#45;&gt;[root] provider.aws (close) -->
<g id="edge31" class="edge"><title>[root] root&#45;&gt;[root] provider.aws (close)</title>
<path fill="none" stroke="black" d="M660.39,-181.632C664.02,-267.779 679.532,-635.885 683.968,-741.162"/>
<polygon fill="black" stroke="black" points="680.479,-741.484 684.397,-751.327 687.472,-741.189 680.479,-741.484"/>
</g>
<!-- [root] root&#45;&gt;[root] provider.azurerm (close) -->
<g id="edge32" class="edge"><title>[root] root&#45;&gt;[root] provider.azurerm (close)</title>
<path fill="none" stroke="black" d="M633.945,-147.953C611.173,-134.168 577.619,-113.856 551.803,-98.2284"/>
<polygon fill="black" stroke="black" points="553.392,-95.099 543.025,-92.9146 549.767,-101.087 553.392,-95.099"/>
</g>
<!-- [root] root&#45;&gt;[root] provider.google (close) -->
<g id="edge33" class="edge"><title>[root] root&#45;&gt;[root] provider.google (close)</title>
<path fill="none" stroke="black" d="M668.032,-181.292C677.995,-202.38 694.705,-237.749 706.302,-262.295"/>
<polygon fill="black" stroke="black" points="703.186,-263.893 710.622,-271.439 709.515,-260.902 703.186,-263.893"/>
</g>
</g>
</svg>
