<?xml version="1.0" encoding="UTF-8" standalone="no"?>
<!DOCTYPE svg PUBLIC "-//W3C//DTD SVG 1.1//EN"
 "http://www.w3.org/Graphics/SVG/1.1/DTD/svg11.dtd">
<!-- Generated by graphviz version 2.38.0 (20140413.2041)
 -->
<!-- Title: %3 Pages: 1 -->
<svg width="623pt" height="559pt"
 viewBox="0.00 0.00 622.85 559.01" xmlns="http://www.w3.org/2000/svg" xmlns:xlink="http://www.w3.org/1999/xlink">
<g id="graph0" class="graph" transform="scale(1 1) rotate(0) translate(304.785 314.9)">
<title>%3</title>
<polygon fill="white" stroke="none" points="-304.785,244.108 -304.785,-314.9 318.069,-314.9 318.069,244.108 -304.785,244.108"/>
<!-- [root] aws_instance.secondserver -->
<g id="node1" class="node"><title>[root] aws_instance.secondserver</title>
<polygon fill="none" stroke="black" points="23.1787,90.9426 -145.821,90.9426 -145.821,126.943 23.1787,126.943 23.1787,90.9426"/>
<text text-anchor="middle" x="-61.3213" y="112.643" font-family="Times New Roman,serif" font-size="14.00">aws_instance.secondserver</text>
</g>
<!-- [root] aws_subnet.subnet1 -->
<g id="node3" class="node"><title>[root] aws_subnet.subnet1</title>
<polygon fill="none" stroke="black" points="-50.1352,128.309 -180.135,128.309 -180.135,164.309 -50.1352,164.309 -50.1352,128.309"/>
<text text-anchor="middle" x="-115.135" y="150.009" font-family="Times New Roman,serif" font-size="14.00">aws_subnet.subnet1</text>
</g>
<!-- [root] aws_instance.secondserver&#45;&gt;[root] aws_subnet.subnet1 -->
<g id="edge1" class="edge"><title>[root] aws_instance.secondserver&#45;&gt;[root] aws_subnet.subnet1</title>
<path fill="none" stroke="black" d="M-87.2825,126.969C-87.4169,127.063 -87.5513,127.156 -87.6858,127.249"/>
<polygon fill="black" stroke="black" points="-78.6854,125.261 -88.8958,128.09 -82.6781,119.511 -78.6854,125.261"/>
</g>
<!-- [root] data.aws_ami.ubuntu -->
<g id="node8" class="node"><title>[root] data.aws_ami.ubuntu</title>
<polygon fill="none" stroke="black" points="-86.4626,118.61 -220.463,118.61 -220.463,154.61 -86.4626,154.61 -86.4626,118.61"/>
<text text-anchor="middle" x="-153.463" y="140.31" font-family="Times New Roman,serif" font-size="14.00">data.aws_ami.ubuntu</text>
</g>
<!-- [root] aws_instance.secondserver&#45;&gt;[root] data.aws_ami.ubuntu -->
<g id="edge2" class="edge"><title>[root] aws_instance.secondserver&#45;&gt;[root] data.aws_ami.ubuntu</title>
<path fill="none" stroke="black" d="M-121.495,127.011C-121.563,127.031 -121.631,127.052 -121.699,127.072"/>
<polygon fill="black" stroke="black" points="-111.318,127.607 -121.904,127.134 -113.334,120.902 -111.318,127.607"/>
</g>
<!-- [root] aws_security_group.subnetsecurity -->
<g id="node2" class="node"><title>[root] aws_security_group.subnetsecurity</title>
<polygon fill="none" stroke="black" points="26.2881,30.9699 -187.712,30.9699 -187.712,66.9699 26.2881,66.9699 26.2881,30.9699"/>
<text text-anchor="middle" x="-80.7119" y="52.6699" font-family="Times New Roman,serif" font-size="14.00">aws_security_group.subnetsecurity</text>
</g>
<!-- [root] aws_vpc.environment&#45;example&#45;two -->
<g id="node5" class="node"><title>[root] aws_vpc.environment&#45;example&#45;two</title>
<polygon fill="none" stroke="black" points="-44.5507,43.4779 -259.551,43.4779 -259.551,79.4779 -44.5507,79.4779 -44.5507,43.4779"/>
<text text-anchor="middle" x="-152.051" y="65.1779" font-family="Times New Roman,serif" font-size="14.00">aws_vpc.environment&#45;example&#45;two</text>
</g>
<!-- [root] aws_security_group.subnetsecurity&#45;&gt;[root] aws_vpc.environment&#45;example&#45;two -->
<g id="edge3" class="edge"><title>[root] aws_security_group.subnetsecurity&#45;&gt;[root] aws_vpc.environment&#45;example&#45;two</title>
<path fill="none" stroke="black" d="M-151.999,61.4688C-152.008,61.4703 -152.015,61.4717 -152.022,61.4728"/>
<polygon fill="black" stroke="black" points="-141.565,63.1463 -152.038,61.4756 -142.809,56.2508 -141.565,63.1463"/>
</g>
<!-- [root] aws_subnet.subnet1&#45;&gt;[root] aws_vpc.environment&#45;example&#45;two -->
<g id="edge4" class="edge"><title>[root] aws_subnet.subnet1&#45;&gt;[root] aws_vpc.environment&#45;example&#45;two</title>
<path fill="none" stroke="black" d="M-123.145,127.902C-128.113,116.486 -134.587,101.609 -140.148,88.8296"/>
<polygon fill="black" stroke="black" points="-143.402,90.1237 -144.183,79.5577 -136.983,87.3306 -143.402,90.1237"/>
</g>
<!-- [root] aws_subnet.subnet2 -->
<g id="node4" class="node"><title>[root] aws_subnet.subnet2</title>
<polygon fill="none" stroke="black" points="-16.3406,-6.54461 -146.341,-6.54461 -146.341,29.4554 -16.3406,29.4554 -16.3406,-6.54461"/>
<text text-anchor="middle" x="-81.3406" y="15.1554" font-family="Times New Roman,serif" font-size="14.00">aws_subnet.subnet2</text>
</g>
<!-- [root] aws_subnet.subnet2&#45;&gt;[root] aws_vpc.environment&#45;example&#45;two -->
<g id="edge5" class="edge"><title>[root] aws_subnet.subnet2&#45;&gt;[root] aws_vpc.environment&#45;example&#45;two</title>
<path fill="none" stroke="black" d="M-106.869,29.5147C-110.528,32.1033 -114.339,34.7998 -118.129,37.4808"/>
<polygon fill="black" stroke="black" points="-116.138,40.3591 -126.323,43.2771 -120.18,34.6445 -116.138,40.3591"/>
</g>
<!-- [root] provider.aws -->
<g id="node13" class="node"><title>[root] provider.aws</title>
<polygon fill="none" stroke="black" points="-218.98,80.5324 -300.591,98.5324 -218.98,116.532 -137.37,98.5324 -218.98,80.5324"/>
<text text-anchor="middle" x="-218.98" y="102.232" font-family="Times New Roman,serif" font-size="14.00">provider.aws</text>
</g>
<!-- [root] aws_vpc.environment&#45;example&#45;two&#45;&gt;[root] provider.aws -->
<g id="edge6" class="edge"><title>[root] aws_vpc.environment&#45;example&#45;two&#45;&gt;[root] provider.aws</title>
<path fill="none" stroke="black" d="M-184.731,79.5709C-185.291,79.8809 -185.851,80.1911 -186.411,80.5011"/>
<polygon fill="black" stroke="black" points="-184.91,83.6705 -195.354,85.4521 -188.301,77.5464 -184.91,83.6705"/>
</g>
<!-- [root] azurerm_resource_group.azy_network -->
<g id="node6" class="node"><title>[root] azurerm_resource_group.azy_network</title>
<polygon fill="none" stroke="black" points="126.755,-156.216 -105.245,-156.216 -105.245,-120.216 126.755,-120.216 126.755,-156.216"/>
<text text-anchor="middle" x="10.755" y="-134.516" font-family="Times New Roman,serif" font-size="14.00">azurerm_resource_group.azy_network</text>
</g>
<!-- [root] provider.azurerm -->
<g id="node14" class="node"><title>[root] provider.azurerm</title>
<polygon fill="none" stroke="black" points="13.1556,-239.989 -89.7356,-221.989 13.1556,-203.989 116.047,-221.989 13.1556,-239.989"/>
<text text-anchor="middle" x="13.1556" y="-218.289" font-family="Times New Roman,serif" font-size="14.00">provider.azurerm</text>
</g>
<!-- [root] azurerm_resource_group.azy_network&#45;&gt;[root] provider.azurerm -->
<g id="edge7" class="edge"><title>[root] azurerm_resource_group.azy_network&#45;&gt;[root] provider.azurerm</title>
<path fill="none" stroke="black" d="M11.2759,-156.393C11.5873,-167.261 11.9898,-181.304 12.3423,-193.607"/>
<polygon fill="black" stroke="black" points="8.85063,-193.951 12.6357,-203.847 15.8478,-193.75 8.85063,-193.951"/>
</g>
<!-- [root] azurerm_virtual_network.blue_virtual_network -->
<g id="node7" class="node"><title>[root] azurerm_virtual_network.blue_virtual_network</title>
<polygon fill="none" stroke="black" points="153.241,-71.2631 -121.759,-71.2631 -121.759,-35.2631 153.241,-35.2631 153.241,-71.2631"/>
<text text-anchor="middle" x="15.741" y="-49.5631" font-family="Times New Roman,serif" font-size="14.00">azurerm_virtual_network.blue_virtual_network</text>
</g>
<!-- [root] azurerm_virtual_network.blue_virtual_network&#45;&gt;[root] azurerm_resource_group.azy_network -->
<g id="edge8" class="edge"><title>[root] azurerm_virtual_network.blue_virtual_network&#45;&gt;[root] azurerm_resource_group.azy_network</title>
<path fill="none" stroke="black" d="M14.6836,-71.2794C14.027,-82.4664 13.1689,-97.0871 12.4222,-109.809"/>
<polygon fill="black" stroke="black" points="8.92008,-109.745 11.8281,-119.933 15.9081,-110.155 8.92008,-109.745"/>
</g>
<!-- [root] data.aws_ami.ubuntu&#45;&gt;[root] provider.aws -->
<g id="edge9" class="edge"><title>[root] data.aws_ami.ubuntu&#45;&gt;[root] provider.aws</title>
<path fill="none" stroke="black" d="M-184.686,118.463C-185.675,117.889 -186.666,117.313 -187.655,116.738"/>
<polygon fill="black" stroke="black" points="-189.523,119.701 -196.41,111.65 -186.005,113.649 -189.523,119.701"/>
</g>
<!-- [root] google_compute_instance.firstserver -->
<g id="node9" class="node"><title>[root] google_compute_instance.firstserver</title>
<polygon fill="none" stroke="black" points="190.539,69.9253 -31.4607,69.9253 -31.4607,105.925 190.539,105.925 190.539,69.9253"/>
<text text-anchor="middle" x="79.5393" y="91.6253" font-family="Times New Roman,serif" font-size="14.00">google_compute_instance.firstserver</text>
</g>
<!-- [root] google_compute_subnetwork.dev&#45;subnet -->
<g id="node11" class="node"><title>[root] google_compute_subnetwork.dev&#45;subnet</title>
<polygon fill="none" stroke="black" points="275.836,126.159 27.8361,126.159 27.8361,162.159 275.836,162.159 275.836,126.159"/>
<text text-anchor="middle" x="151.836" y="147.859" font-family="Times New Roman,serif" font-size="14.00">google_compute_subnetwork.dev&#45;subnet</text>
</g>
<!-- [root] google_compute_instance.firstserver&#45;&gt;[root] google_compute_subnetwork.dev&#45;subnet -->
<g id="edge10" class="edge"><title>[root] google_compute_instance.firstserver&#45;&gt;[root] google_compute_subnetwork.dev&#45;subnet</title>
<path fill="none" stroke="black" d="M102.812,106.028C108.488,110.442 114.651,115.236 120.63,119.887"/>
<polygon fill="black" stroke="black" points="122.862,117.188 128.607,126.091 118.564,122.714 122.862,117.188"/>
</g>
<!-- [root] google_compute_network.my_development_network -->
<g id="node10" class="node"><title>[root] google_compute_network.my_development_network</title>
<polygon fill="none" stroke="black" points="314.069,204.108 -0.930988,204.108 -0.930988,240.108 314.069,240.108 314.069,204.108"/>
<text text-anchor="middle" x="156.569" y="225.808" font-family="Times New Roman,serif" font-size="14.00">google_compute_network.my_development_network</text>
</g>
<!-- [root] provider.google -->
<g id="node15" class="node"><title>[root] provider.google</title>
<polygon fill="none" stroke="black" points="81.2261,180.623 -15.297,198.623 81.2261,216.623 177.749,198.623 81.2261,180.623"/>
<text text-anchor="middle" x="81.2261" y="202.323" font-family="Times New Roman,serif" font-size="14.00">provider.google</text>
</g>
<!-- [root] google_compute_network.my_development_network&#45;&gt;[root] provider.google -->
<g id="edge11" class="edge"><title>[root] google_compute_network.my_development_network&#45;&gt;[root] provider.google</title>
<path fill="none" stroke="black" d="M98.7006,204.07C98.6216,204.045 98.5427,204.02 98.464,203.996"/>
<polygon fill="black" stroke="black" points="106.733,210.243 98.2284,203.922 108.818,203.56 106.733,210.243"/>
</g>
<!-- [root] google_compute_subnetwork.dev&#45;subnet&#45;&gt;[root] google_compute_network.my_development_network -->
<g id="edge12" class="edge"><title>[root] google_compute_subnetwork.dev&#45;subnet&#45;&gt;[root] google_compute_network.my_development_network</title>
<path fill="none" stroke="black" d="M152.934,162.238C153.503,171.615 154.212,183.283 154.852,193.822"/>
<polygon fill="black" stroke="black" points="158.348,193.663 155.461,203.857 151.361,194.087 158.348,193.663"/>
</g>
<!-- [root] google_container_cluster.googlekubernates -->
<g id="node12" class="node"><title>[root] google_container_cluster.googlekubernates</title>
<polygon fill="none" stroke="black" points="179.63,99.8036 -78.3697,99.8036 -78.3697,135.804 179.63,135.804 179.63,99.8036"/>
<text text-anchor="middle" x="50.6303" y="121.504" font-family="Times New Roman,serif" font-size="14.00">google_container_cluster.googlekubernates</text>
</g>
<!-- [root] google_container_cluster.googlekubernates&#45;&gt;[root] provider.google -->
<g id="edge13" class="edge"><title>[root] google_container_cluster.googlekubernates&#45;&gt;[root] provider.google</title>
<path fill="none" stroke="black" d="M57.5729,136.143C61.6225,146.84 66.7989,160.513 71.2762,172.34"/>
<polygon fill="black" stroke="black" points="74.5653,171.143 74.8325,181.734 68.0187,173.621 74.5653,171.143"/>
</g>
<!-- [root] var.client_id -->
<g id="node16" class="node"><title>[root] var.client_id</title>
<polygon fill="none" stroke="black" points="86.8189,-310.6 7.81892,-310.6 7.81892,-274.6 92.8189,-274.6 92.8189,-304.6 86.8189,-310.6"/>
<polyline fill="none" stroke="black" points="86.8189,-310.6 86.8189,-304.6 "/>
<polyline fill="none" stroke="black" points="92.8189,-304.6 86.8189,-304.6 "/>
<text text-anchor="middle" x="50.3189" y="-288.9" font-family="Times New Roman,serif" font-size="14.00">var.client_id</text>
</g>
<!-- [root] provider.azurerm&#45;&gt;[root] var.client_id -->
<g id="edge24" class="edge"><title>[root] provider.azurerm&#45;&gt;[root] var.client_id</title>
<path fill="none" stroke="black" d="M21.9628,-238.723C26.1685,-246.714 31.308,-256.479 36.0507,-265.49"/>
<polygon fill="black" stroke="black" points="33.039,-267.283 40.7937,-274.502 39.2335,-264.023 33.039,-267.283"/>
</g>
<!-- [root] var.client_secret -->
<g id="node17" class="node"><title>[root] var.client_secret</title>
<polygon fill="none" stroke="black" points="-22.1176,-266.903 -123.118,-266.903 -123.118,-230.903 -16.1176,-230.903 -16.1176,-260.903 -22.1176,-266.903"/>
<polyline fill="none" stroke="black" points="-22.1176,-266.903 -22.1176,-260.903 "/>
<polyline fill="none" stroke="black" points="-16.1176,-260.903 -22.1176,-260.903 "/>
<text text-anchor="middle" x="-69.6176" y="-245.203" font-family="Times New Roman,serif" font-size="14.00">var.client_secret</text>
</g>
<!-- [root] provider.azurerm&#45;&gt;[root] var.client_secret -->
<g id="edge25" class="edge"><title>[root] provider.azurerm&#45;&gt;[root] var.client_secret</title>
<path fill="none" stroke="black" d="M-22.9092,-233.716C-22.9527,-233.73 -22.9963,-233.744 -23.0399,-233.758"/>
<polygon fill="black" stroke="black" points="-14.7445,-227.375 -23.1706,-233.801 -12.5764,-234.032 -14.7445,-227.375"/>
</g>
<!-- [root] var.subscription_id -->
<g id="node18" class="node"><title>[root] var.subscription_id</title>
<polygon fill="none" stroke="black" points="32.017,-310.9 -86.983,-310.9 -86.983,-274.9 38.017,-274.9 38.017,-304.9 32.017,-310.9"/>
<polyline fill="none" stroke="black" points="32.017,-310.9 32.017,-304.9 "/>
<polyline fill="none" stroke="black" points="38.017,-304.9 32.017,-304.9 "/>
<text text-anchor="middle" x="-24.483" y="-289.2" font-family="Times New Roman,serif" font-size="14.00">var.subscription_id</text>
</g>
<!-- [root] provider.azurerm&#45;&gt;[root] var.subscription_id -->
<g id="edge26" class="edge"><title>[root] provider.azurerm&#45;&gt;[root] var.subscription_id</title>
<path fill="none" stroke="black" d="M4.23579,-238.794C-0.0236508,-246.819 -5.22892,-256.625 -10.0323,-265.675"/>
<polygon fill="black" stroke="black" points="-13.2391,-264.251 -14.8359,-274.725 -7.05606,-267.533 -13.2391,-264.251"/>
</g>
<!-- [root] var.tenant_id -->
<g id="node19" class="node"><title>[root] var.tenant_id</title>
<polygon fill="none" stroke="black" points="135.413,-265.917 52.4128,-265.917 52.4128,-229.917 141.413,-229.917 141.413,-259.917 135.413,-265.917"/>
<polyline fill="none" stroke="black" points="135.413,-265.917 135.413,-259.917 "/>
<polyline fill="none" stroke="black" points="141.413,-259.917 135.413,-259.917 "/>
<text text-anchor="middle" x="96.9128" y="-244.217" font-family="Times New Roman,serif" font-size="14.00">var.tenant_id</text>
</g>
<!-- [root] provider.azurerm&#45;&gt;[root] var.tenant_id -->
<g id="edge27" class="edge"><title>[root] provider.azurerm&#45;&gt;[root] var.tenant_id</title>
<path fill="none" stroke="black" d="M50.6246,-233.588C50.7553,-233.628 50.886,-233.669 51.0168,-233.709"/>
<polygon fill="black" stroke="black" points="41.6071,-234.46 52.1951,-234.074 43.6775,-227.773 41.6071,-234.46"/>
</g>
<!-- [root] meta.count&#45;boundary (EachMode fixup) -->
<g id="node20" class="node"><title>[root] meta.count&#45;boundary (EachMode fixup)</title>
<ellipse fill="none" stroke="black" cx="2.21072" cy="45.2817" rx="180.868" ry="18"/>
<text text-anchor="middle" x="2.21072" y="48.9817" font-family="Times New Roman,serif" font-size="14.00">[root] meta.count&#45;boundary (EachMode fixup)</text>
</g>
<!-- [root] meta.count&#45;boundary (EachMode fixup)&#45;&gt;[root] aws_instance.secondserver -->
<g id="edge14" class="edge"><title>[root] meta.count&#45;boundary (EachMode fixup)&#45;&gt;[root] aws_instance.secondserver</title>
<path fill="none" stroke="black" d="M-15.8251,63.3541C-22.0753,69.617 -29.2037,76.7599 -35.9338,83.5036"/>
<polygon fill="black" stroke="black" points="-33.4785,85.9981 -43.0198,90.604 -38.4333,81.0533 -33.4785,85.9981"/>
</g>
<!-- [root] meta.count&#45;boundary (EachMode fixup)&#45;&gt;[root] aws_security_group.subnetsecurity -->
<g id="edge15" class="edge"><title>[root] meta.count&#45;boundary (EachMode fixup)&#45;&gt;[root] aws_security_group.subnetsecurity</title>
<path fill="none" stroke="black" d="M-80.6518,48.9672C-80.6618,48.9677 -80.6705,48.9681 -80.678,48.9684"/>
<polygon fill="black" stroke="black" points="-70.5335,51.9709 -80.6968,48.9692 -70.8799,44.9778 -70.5335,51.9709"/>
</g>
<!-- [root] meta.count&#45;boundary (EachMode fixup)&#45;&gt;[root] aws_subnet.subnet2 -->
<g id="edge16" class="edge"><title>[root] meta.count&#45;boundary (EachMode fixup)&#45;&gt;[root] aws_subnet.subnet2</title>
<path fill="none" stroke="black" d="M-41.0333,27.7741C-41.113,27.7418 -41.1926,27.7096 -41.2722,27.6773"/>
<polygon fill="black" stroke="black" points="-33.5559,34.5801 -41.5111,27.5806 -30.9273,28.0915 -33.5559,34.5801"/>
</g>
<!-- [root] meta.count&#45;boundary (EachMode fixup)&#45;&gt;[root] azurerm_virtual_network.blue_virtual_network -->
<g id="edge17" class="edge"><title>[root] meta.count&#45;boundary (EachMode fixup)&#45;&gt;[root] azurerm_virtual_network.blue_virtual_network</title>
<path fill="none" stroke="black" d="M4.69238,27.2071C6.68249,12.7125 9.51272,-7.90087 11.8104,-24.6356"/>
<polygon fill="black" stroke="black" points="8.40144,-25.5384 13.2292,-34.9693 15.3364,-24.5862 8.40144,-25.5384"/>
</g>
<!-- [root] meta.count&#45;boundary (EachMode fixup)&#45;&gt;[root] google_compute_instance.firstserver -->
<g id="edge18" class="edge"><title>[root] meta.count&#45;boundary (EachMode fixup)&#45;&gt;[root] google_compute_instance.firstserver</title>
<path fill="none" stroke="black" d="M34.557,63.1194C35.5502,63.6671 36.5492,64.218 37.5513,64.7706"/>
<polygon fill="black" stroke="black" points="39.5102,61.8539 46.5768,69.7478 36.1299,67.9836 39.5102,61.8539"/>
</g>
<!-- [root] meta.count&#45;boundary (EachMode fixup)&#45;&gt;[root] google_container_cluster.googlekubernates -->
<g id="edge19" class="edge"><title>[root] meta.count&#45;boundary (EachMode fixup)&#45;&gt;[root] google_container_cluster.googlekubernates</title>
<path fill="none" stroke="black" d="M14.429,63.5821C20.0338,71.9769 26.7859,82.0899 32.9328,91.2966"/>
<polygon fill="black" stroke="black" points="35.9417,89.5002 38.5836,99.7603 30.12,93.3871 35.9417,89.5002"/>
</g>
<!-- [root] provider.aws (close) -->
<g id="node21" class="node"><title>[root] provider.aws (close)</title>
<ellipse fill="none" stroke="black" cx="-30.4914" cy="45.8631" rx="108.581" ry="18"/>
<text text-anchor="middle" x="-30.4914" y="49.5631" font-family="Times New Roman,serif" font-size="14.00">[root] provider.aws (close)</text>
</g>
<!-- [root] provider.aws (close)&#45;&gt;[root] aws_instance.secondserver -->
<g id="edge20" class="edge"><title>[root] provider.aws (close)&#45;&gt;[root] aws_instance.secondserver</title>
<path fill="none" stroke="black" d="M-39.4087,64.1083C-42.0062,69.423 -44.9051,75.3541 -47.7219,81.1174"/>
<polygon fill="black" stroke="black" points="-44.7816,83.0724 -52.3173,90.5199 -51.0707,79.9986 -44.7816,83.0724"/>
</g>
<!-- [root] provider.aws (close)&#45;&gt;[root] aws_security_group.subnetsecurity -->
<g id="edge21" class="edge"><title>[root] provider.aws (close)&#45;&gt;[root] aws_security_group.subnetsecurity</title>
<path fill="none" stroke="black" d="M-80.5679,48.961C-80.5916,48.9625 -80.6125,48.9638 -80.6305,48.9649"/>
<polygon fill="black" stroke="black" points="-70.4712,51.8228 -80.6755,48.9677 -70.9179,44.8361 -70.4712,51.8228"/>
</g>
<!-- [root] provider.aws (close)&#45;&gt;[root] aws_subnet.subnet2 -->
<g id="edge22" class="edge"><title>[root] provider.aws (close)&#45;&gt;[root] aws_subnet.subnet2</title>
<path fill="none" stroke="black" d="M-56.5118,28.2561C-56.5607,28.223 -56.6096,28.1899 -56.6584,28.1569"/>
<polygon fill="black" stroke="black" points="-50.4843,36.5634 -56.805,28.0577 -46.5596,30.7653 -50.4843,36.5634"/>
</g>
<!-- [root] provider.azurerm (close) -->
<g id="node22" class="node"><title>[root] provider.azurerm (close)</title>
<ellipse fill="none" stroke="black" cx="93.606" cy="-55.6661" rx="123.478" ry="18"/>
<text text-anchor="middle" x="93.606" y="-51.9661" font-family="Times New Roman,serif" font-size="14.00">[root] provider.azurerm (close)</text>
</g>
<!-- [root] provider.azurerm (close)&#45;&gt;[root] azurerm_virtual_network.blue_virtual_network -->
<g id="edge23" class="edge"><title>[root] provider.azurerm (close)&#45;&gt;[root] azurerm_virtual_network.blue_virtual_network</title>
<path fill="none" stroke="black" d="M15.7974,-53.2649C15.7881,-53.2646 15.7799,-53.2643 15.7728,-53.2641"/>
<polygon fill="black" stroke="black" points="25.8775,-50.1283 15.7552,-53.2636 25.6234,-57.125 25.8775,-50.1283"/>
</g>
<!-- [root] provider.google (close) -->
<g id="node23" class="node"><title>[root] provider.google (close)</title>
<ellipse fill="none" stroke="black" cx="127.193" cy="62.3632" rx="118.879" ry="18"/>
<text text-anchor="middle" x="127.193" y="66.0632" font-family="Times New Roman,serif" font-size="14.00">[root] provider.google (close)</text>
</g>
<!-- [root] provider.google (close)&#45;&gt;[root] google_compute_instance.firstserver -->
<g id="edge28" class="edge"><title>[root] provider.google (close)&#45;&gt;[root] google_compute_instance.firstserver</title>
<path fill="none" stroke="black" d="M94.8794,79.6966C94.813,79.7322 94.7467,79.7678 94.6805,79.8033"/>
<polygon fill="black" stroke="black" points="104.95,78.2647 94.4823,79.9096 101.64,72.0958 104.95,78.2647"/>
</g>
<!-- [root] provider.google (close)&#45;&gt;[root] google_container_cluster.googlekubernates -->
<g id="edge29" class="edge"><title>[root] provider.google (close)&#45;&gt;[root] google_container_cluster.googlekubernates</title>
<path fill="none" stroke="black" d="M102.546,80.2101C96.5958,84.519 90.1396,89.1941 83.8672,93.736"/>
<polygon fill="black" stroke="black" points="85.6451,96.7699 75.4928,99.8001 81.5395,91.1002 85.6451,96.7699"/>
</g>
<!-- [root] root -->
<g id="node24" class="node"><title>[root] root</title>
<ellipse fill="none" stroke="black" cx="57.9014" cy="15.0308" rx="49.2915" ry="18"/>
<text text-anchor="middle" x="57.9014" y="18.7308" font-family="Times New Roman,serif" font-size="14.00">[root] root</text>
</g>
<!-- [root] root&#45;&gt;[root] meta.count&#45;boundary (EachMode fixup) -->
<g id="edge30" class="edge"><title>[root] root&#45;&gt;[root] meta.count&#45;boundary (EachMode fixup)</title>
<path fill="none" stroke="black" d="M30.3824,29.979C30.3276,30.0088 30.2728,30.0385 30.218,30.0683"/>
<polygon fill="black" stroke="black" points="40.5131,28.4574 30.0535,30.1576 37.1699,22.3059 40.5131,28.4574"/>
</g>
<!-- [root] root&#45;&gt;[root] provider.aws (close) -->
<g id="edge31" class="edge"><title>[root] root&#45;&gt;[root] provider.aws (close)</title>
<path fill="none" stroke="black" d="M22.2035,27.4826C22.0837,27.5244 21.9638,27.5662 21.8438,27.608"/>
<polygon fill="black" stroke="black" points="26.9972,29.5172 16.4024,29.5061 24.6917,22.9077 26.9972,29.5172"/>
</g>
<!-- [root] root&#45;&gt;[root] provider.azurerm (close) -->
<g id="edge32" class="edge"><title>[root] root&#45;&gt;[root] provider.azurerm (close)</title>
<path fill="none" stroke="black" d="M66.9112,-2.80901C70.8557,-10.6193 75.5707,-19.9553 79.933,-28.5928"/>
<polygon fill="black" stroke="black" points="76.8426,-30.2377 84.4749,-37.5861 83.091,-27.082 76.8426,-30.2377"/>
</g>
<!-- [root] root&#45;&gt;[root] provider.google (close) -->
<g id="edge33" class="edge"><title>[root] root&#45;&gt;[root] provider.google (close)</title>
<path fill="none" stroke="black" d="M81.3602,31.0554C85.0827,33.5982 88.9982,36.2728 92.9076,38.9433"/>
<polygon fill="black" stroke="black" points="95.0956,36.1993 101.379,44.7299 91.1472,41.9794 95.0956,36.1993"/>
</g>
</g>
</svg>
